999
dxfrw 0.5.11
0
SECTION
2
HEADER
9
$ACADVER
1
AC1021
9
$HANDSEED
5
20000
9
$DWGCODEPAGE
3
ANSI_1252
9
$INSBASE
10
0
20
0
30
0
9
$EXTMIN
10
-25
20
-143.372350215
30
0
9
$EXTMAX
10
215
20
25.81044
30
0
9
$LIMMIN
10
0
20
0
9
$LIMMAX
10
12
20
9
9
$ORTHOMODE
70
0
9
$LTSCALE
40
1
9
$TEXTSTYLE
7
Standard
9
$CLAYER
8
0
9
$DIMASZ
40
2.5
9
$DIMLFAC
40
1
9
$DIMSCALE
40
1
9
$DIMEXO
40
0.625
9
$DIMEXE
40
1.25
9
$DIMTXT
40
2.5
9
$DIMTSZ
40
0
9
$DIMAUNIT
70
0
9
$DIMADEC
70
0
9
$DIMLUNIT
70
2
9
$DIMSTYLE
2
Standard
9
$DIMGAP
40
0.625
9
$DIMTIH
70
1
9
$LUNITS
70
2
9
$LUPREC
70
4
9
$AUNITS
70
0
9
$AUPREC
70
0
9
$SPLINESEGS
70
8
9
$GRIDMODE
70
0
9
$SNAPSTYLE
70
0
9
$PINSBASE
10
0
20
0
30
0
9
$PLIMMIN
10
0
20
0
9
$PLIMMAX
10
12
20
9
9
$INSUNITS
70
4
9
$PSVPSCALE
40
0
0
ENDSEC
0
SECTION
2
CLASSES
0
ENDSEC
0
SECTION
2
TABLES
0
TABLE
2
VPORT
5
8
330
0
100
AcDbSymbolTable
70
1
0
VPORT
5
31
330
2
100
AcDbSymbolTableRecord
100
AcDbViewportTableRecord
2
*ACTIVE
70
0
10
0
20
0
11
1
21
1
12
152.380248909
22
32.0384170321
13
0
23
0
14
10
24
10
15
10
25
10
16
0
26
0
36
1
17
0
27
0
37
0
40
230.201959416
41
1.85824742268
42
50
43
0
44
0
50
0
51
0
71
0
72
100
73
1
74
3
75
0
76
0
77
0
78
0
281
0
65
1
110
0
120
0
130
0
111
1
121
0
131
0
112
0
122
1
132
0
79
0
146
0
348
10020
60
7
61
5
292
1
282
1
141
0
142
0
63
250
421
3358443
0
ENDTAB
0
TABLE
2
LTYPE
5
5
330
0
100
AcDbSymbolTable
70
4
0
LTYPE
5
14
330
5
100
AcDbSymbolTableRecord
100
AcDbLinetypeTableRecord
2
ByBlock
70
0
3

72
65
73
0
40
0
0
LTYPE
5
15
330
5
100
AcDbSymbolTableRecord
100
AcDbLinetypeTableRecord
2
ByLayer
70
0
3

72
65
73
0
40
0
0
LTYPE
5
16
330
5
100
AcDbSymbolTableRecord
100
AcDbLinetypeTableRecord
2
Continuous
70
0
3
Solid line
72
65
73
0
40
0
0
LTYPE
5
32
330
5
100
AcDbSymbolTableRecord
100
AcDbLinetypeTableRecord
2
DOT
70
0
3
Dot . . . . . . . . . . . . . . . . . . . . . .
72
65
73
2
40
6.35
49
0
74
0
49
-6.35
74
0
0
LTYPE
5
33
330
5
100
AcDbSymbolTableRecord
100
AcDbLinetypeTableRecord
2
DOT2
70
0
3
Dot (.5x) .....................................
72
65
73
2
40
3.175
49
0
74
0
49
-3.175
74
0
0
LTYPE
5
34
330
5
100
AcDbSymbolTableRecord
100
AcDbLinetypeTableRecord
2
DOTX2
70
0
3
Dot (2x) .  .  .  .  .  .  .  .  .  .  .  .  .
72
65
73
2
40
12.7
49
0
74
0
49
-12.7
74
0
0
LTYPE
5
35
330
5
100
AcDbSymbolTableRecord
100
AcDbLinetypeTableRecord
2
DASHED
70
0
3
Dot . . . . . . . . . . . . . . . . . . . . . .
72
65
73
2
40
19.05
49
12.7
74
0
49
-6.35
74
0
0
LTYPE
5
36
330
5
100
AcDbSymbolTableRecord
100
AcDbLinetypeTableRecord
2
DASHED2
70
0
3
Dashed (.5x) _ _ _ _ _ _ _ _ _ _ _ _ _ _ _ _ _
72
65
73
2
40
9.525
49
6.35
74
0
49
-3.175
74
0
0
LTYPE
5
37
330
5
100
AcDbSymbolTableRecord
100
AcDbLinetypeTableRecord
2
DASHEDX2
70
0
3
Dashed (2x) ____  ____  ____  ____  ____  ___
72
65
73
2
40
38.1
49
25.4
74
0
49
-12.7
74
0
0
LTYPE
5
38
330
5
100
AcDbSymbolTableRecord
100
AcDbLinetypeTableRecord
2
DASHDOT
70
0
3
Dash dot __ . __ . __ . __ . __ . __ . __ . __
72
65
73
4
40
25.4
49
12.7
74
0
49
-6.35
74
0
49
0
74
0
49
-6.35
74
0
0
LTYPE
5
39
330
5
100
AcDbSymbolTableRecord
100
AcDbLinetypeTableRecord
2
DASHDOT2
70
0
3
Dash dot (.5x) _._._._._._._._._._._._._._._.
72
65
73
4
40
12.7
49
6.35
74
0
49
-3.175
74
0
49
0
74
0
49
-3.175
74
0
0
LTYPE
5
3A
330
5
100
AcDbSymbolTableRecord
100
AcDbLinetypeTableRecord
2
DASHDOTX2
70
0
3
Dash dot (2x) ____  .  ____  .  ____  .  ___
72
65
73
4
40
50.8
49
25.4
74
0
49
-12.7
74
0
49
0
74
0
49
-12.7
74
0
0
LTYPE
5
3B
330
5
100
AcDbSymbolTableRecord
100
AcDbLinetypeTableRecord
2
DIVIDE
70
0
3
Divide ____ . . ____ . . ____ . . ____ . . ____
72
65
73
6
40
31.75
49
12.7
74
0
49
-6.35
74
0
49
0
74
0
49
-6.35
74
0
49
0
74
0
49
-6.35
74
0
0
LTYPE
5
3C
330
5
100
AcDbSymbolTableRecord
100
AcDbLinetypeTableRecord
2
DIVIDE2
70
0
3
Divide (.5x) __..__..__..__..__..__..__..__.._
72
65
73
6
40
15.875
49
6.35
74
0
49
-3.175
74
0
49
0
74
0
49
-3.175
74
0
49
0
74
0
49
-3.175
74
0
0
LTYPE
5
3D
330
5
100
AcDbSymbolTableRecord
100
AcDbLinetypeTableRecord
2
DIVIDEX2
70
0
3
Divide (2x) ________  .  .  ________  .  .  _
72
65
73
6
40
63.5
49
25.4
74
0
49
-12.7
74
0
49
0
74
0
49
-12.7
74
0
49
0
74
0
49
-12.7
74
0
0
LTYPE
5
3E
330
5
100
AcDbSymbolTableRecord
100
AcDbLinetypeTableRecord
2
BORDER
70
0
3
Border __ __ . __ __ . __ __ . __ __ . __ __ .
72
65
73
6
40
44.45
49
12.7
74
0
49
-6.35
74
0
49
12.7
74
0
49
-6.35
74
0
49
0
74
0
49
-6.35
74
0
0
LTYPE
5
3F
330
5
100
AcDbSymbolTableRecord
100
AcDbLinetypeTableRecord
2
BORDER2
70
0
3
Border (.5x) __.__.__.__.__.__.__.__.__.__.__.
72
65
73
6
40
22.225
49
6.35
74
0
49
-3.175
74
0
49
6.35
74
0
49
-3.175
74
0
49
0
74
0
49
-3.175
74
0
0
LTYPE
5
40
330
5
100
AcDbSymbolTableRecord
100
AcDbLinetypeTableRecord
2
BORDERX2
70
0
3
Border (2x) ____  ____  .  ____  ____  .  ___
72
65
73
6
40
88.9
49
25.4
74
0
49
-12.7
74
0
49
25.4
74
0
49
-12.7
74
0
49
0
74
0
49
-12.7
74
0
0
LTYPE
5
41
330
5
100
AcDbSymbolTableRecord
100
AcDbLinetypeTableRecord
2
CENTER
70
0
3
Center ____ _ ____ _ ____ _ ____ _ ____ _ ____
72
65
73
4
40
50.8
49
31.75
74
0
49
-6.35
74
0
49
6.35
74
0
49
-6.35
74
0
0
LTYPE
5
42
330
5
100
AcDbSymbolTableRecord
100
AcDbLinetypeTableRecord
2
CENTER2
70
0
3
Center (.5x) ___ _ ___ _ ___ _ ___ _ ___ _ ___
72
65
73
4
40
28.575
49
19.05
74
0
49
-3.175
74
0
49
3.175
74
0
49
-3.175
74
0
0
LTYPE
5
43
330
5
100
AcDbSymbolTableRecord
100
AcDbLinetypeTableRecord
2
CENTERX2
70
0
3
Center (2x) ________  __  ________  __  _____
72
65
73
4
40
101.6
49
63.5
74
0
49
-12.7
74
0
49
12.7
74
0
49
-12.7
74
0
0
ENDTAB
0
TABLE
2
LAYER
5
2
330
0
100
AcDbSymbolTable
70
1
0
LAYER
5
10
330
2
100
AcDbSymbolTableRecord
100
AcDbLayerTableRecord
2
0
70
0
62
255
6
CONTINUOUS
370
25
390
F
0
ENDTAB
0
TABLE
2
STYLE
5
3
330
0
100
AcDbSymbolTable
70
3
0
STYLE
5
44
330
2
100
AcDbSymbolTableRecord
100
AcDbTextStyleTableRecord
2
Standard
70
0
40
0
41
1
50
0
71
0
42
1
3
txt
4

0
ENDTAB
0
TABLE
2
VIEW
5
6
330
0
100
AcDbSymbolTable
70
0
0
ENDTAB
0
TABLE
2
UCS
5
7
330
0
100
AcDbSymbolTable
70
0
0
ENDTAB
0
TABLE
2
APPID
5
9
330
0
100
AcDbSymbolTable
70
1
0
APPID
5
12
330
9
100
AcDbSymbolTableRecord
100
AcDbRegAppTableRecord
2
ACAD
70
0
0
ENDTAB
0
TABLE
2
DIMSTYLE
5
A
330
0
100
AcDbSymbolTable
70
1
100
AcDbDimStyleTable
71
1
0
DIMSTYLE
105
45
330
A
100
AcDbSymbolTableRecord
100
AcDbDimStyleTableRecord
2
Standard
70
0
40
1
41
2.5
42
0.625
43
0.38
44
1.25
45
0
46
0
47
0
48
0
140
2.5
141
0.09
142
0
143
25.4
144
1
145
0
146
1
147
0.625
148
0
71
0
72
0
73
0
74
1
75
0
76
0
77
0
78
0
79
0
170
0
171
2
172
0
173
0
174
0
175
0
176
0
177
0
178
0
179
0
271
4
272
4
273
2
274
2
275
0
276
0
277
2
278
46
279
0
280
0
281
0
282
0
283
1
284
0
285
0
286
0
288
0
289
3
340
Standard
341

371
-2
372
-2
0
ENDTAB
0
TABLE
2
BLOCK_RECORD
5
1
330
0
100
AcDbSymbolTable
70
2
0
BLOCK_RECORD
5
1F
330
1
100
AcDbSymbolTableRecord
100
AcDbBlockTableRecord
2
*Model_Space
70
0
280
1
281
0
0
BLOCK_RECORD
5
1E
330
1
100
AcDbSymbolTableRecord
100
AcDbBlockTableRecord
2
*Paper_Space
70
0
280
1
281
0
0
ENDTAB
0
ENDSEC
0
SECTION
2
BLOCKS
0
BLOCK
5
20
330
1F
100
AcDbEntity
8
0
100
AcDbBlockBegin
2
*Model_Space
70
0
10
0
20
0
30
0
3
*Model_Space
1

0
ENDBLK
5
21
330
1F
100
AcDbEntity
8
0
100
AcDbBlockEnd
0
BLOCK
5
1C
330
1B
100
AcDbEntity
8
0
100
AcDbBlockBegin
2
*Paper_Space
70
0
10
0
20
0
30
0
3
*Paper_Space
1

0
ENDBLK
5
1D
330
1F
100
AcDbEntity
8
0
100
AcDbBlockEnd
0
ENDSEC
0
SECTION
2
ENTITIES
0
LINE
5
46
100
AcDbEntity
8
0
6
ByLayer
62
1
370
-1
100
AcDbLine
10
52.07
20
0.98044
11
38.1
21
0.98044
0
LINE
5
47
100
AcDbEntity
8
0
6
ByLayer
62
1
370
-1
100
AcDbLine
10
38.1
20
0.98044
11
38.1
21
0
0
LINE
5
48
100
AcDbEntity
8
0
6
ByLayer
62
1
370
-1
100
AcDbLine
10
38.1
20
0
11
37.2872
21
0
0
LINE
5
49
100
AcDbEntity
8
0
6
ByLayer
62
1
370
-1
100
AcDbLine
10
37.2872
20
0
11
37.2872
21
-3.50012
0
LINE
5
4A
100
AcDbEntity
8
0
6
ByLayer
62
1
370
-1
100
AcDbLine
10
37.2872
20
-3.50012
11
38.1
21
-3.50012
0
LINE
5
4B
100
AcDbEntity
8
0
6
ByLayer
62
1
370
-1
100
AcDbLine
10
38.1
20
-3.50012
11
38.1
21
-8.509
0
LINE
5
4C
100
AcDbEntity
8
0
6
ByLayer
62
1
370
-1
100
AcDbLine
10
38.1
20
-8.509
11
37.2872
21
-8.509
0
LINE
5
4D
100
AcDbEntity
8
0
6
ByLayer
62
1
370
-1
100
AcDbLine
10
37.2872
20
-8.509
11
37.2872
21
-12.00912
0
LINE
5
4E
100
AcDbEntity
8
0
6
ByLayer
62
1
370
-1
100
AcDbLine
10
37.2872
20
-12.00912
11
38.1
21
-12.00912
0
LINE
5
4F
100
AcDbEntity
8
0
6
ByLayer
62
1
370
-1
100
AcDbLine
10
38.1
20
-12.00912
11
38.1
21
-12.98956
0
LINE
5
50
100
AcDbEntity
8
0
6
ByLayer
62
1
370
-1
100
AcDbLine
10
38.1
20
-12.98956
11
52.07
21
-12.98956
0
LINE
5
51
100
AcDbEntity
8
0
6
ByLayer
62
1
370
-1
100
AcDbLine
10
52.07
20
-12.98956
11
52.07
21
-12.00912
0
LINE
5
52
100
AcDbEntity
8
0
6
ByLayer
62
1
370
-1
100
AcDbLine
10
52.07
20
-12.00912
11
52.8828
21
-12.00912
0
LINE
5
53
100
AcDbEntity
8
0
6
ByLayer
62
1
370
-1
100
AcDbLine
10
52.8828
20
-12.00912
11
52.8828
21
-8.509
0
LINE
5
54
100
AcDbEntity
8
0
6
ByLayer
62
1
370
-1
100
AcDbLine
10
52.8828
20
-8.509
11
52.07
21
-8.509
0
LINE
5
55
100
AcDbEntity
8
0
6
ByLayer
62
1
370
-1
100
AcDbLine
10
52.07
20
-8.509
11
52.07
21
-3.50012
0
LINE
5
56
100
AcDbEntity
8
0
6
ByLayer
62
1
370
-1
100
AcDbLine
10
52.07
20
-3.50012
11
52.8828
21
-3.50012
0
LINE
5
57
100
AcDbEntity
8
0
6
ByLayer
62
1
370
-1
100
AcDbLine
10
52.8828
20
-3.50012
11
52.8828
21
0
0
LINE
5
58
100
AcDbEntity
8
0
6
ByLayer
62
1
370
-1
100
AcDbLine
10
52.8828
20
0
11
52.07
21
0
0
LINE
5
59
100
AcDbEntity
8
0
6
ByLayer
62
1
370
-1
100
AcDbLine
10
52.07
20
0
11
52.07
21
0.98044
0
LINE
5
5A
100
AcDbEntity
8
0
6
ByLayer
62
1
370
-1
100
AcDbLine
10
33.02
20
0.98044
11
19.05
21
0.98044
0
LINE
5
5B
100
AcDbEntity
8
0
6
ByLayer
62
1
370
-1
100
AcDbLine
10
19.05
20
0.98044
11
19.05
21
0
0
LINE
5
5C
100
AcDbEntity
8
0
6
ByLayer
62
1
370
-1
100
AcDbLine
10
19.05
20
0
11
18.2372
21
0
0
LINE
5
5D
100
AcDbEntity
8
0
6
ByLayer
62
1
370
-1
100
AcDbLine
10
18.2372
20
0
11
18.2372
21
-3.50012
0
LINE
5
5E
100
AcDbEntity
8
0
6
ByLayer
62
1
370
-1
100
AcDbLine
10
18.2372
20
-3.50012
11
19.05
21
-3.50012
0
LINE
5
5F
100
AcDbEntity
8
0
6
ByLayer
62
1
370
-1
100
AcDbLine
10
19.05
20
-3.50012
11
19.05
21
-8.509
0
LINE
5
60
100
AcDbEntity
8
0
6
ByLayer
62
1
370
-1
100
AcDbLine
10
19.05
20
-8.509
11
18.2372
21
-8.509
0
LINE
5
61
100
AcDbEntity
8
0
6
ByLayer
62
1
370
-1
100
AcDbLine
10
18.2372
20
-8.509
11
18.2372
21
-12.00912
0
LINE
5
62
100
AcDbEntity
8
0
6
ByLayer
62
1
370
-1
100
AcDbLine
10
18.2372
20
-12.00912
11
19.05
21
-12.00912
0
LINE
5
63
100
AcDbEntity
8
0
6
ByLayer
62
1
370
-1
100
AcDbLine
10
19.05
20
-12.00912
11
19.05
21
-12.98956
0
LINE
5
64
100
AcDbEntity
8
0
6
ByLayer
62
1
370
-1
100
AcDbLine
10
19.05
20
-12.98956
11
33.02
21
-12.98956
0
LINE
5
65
100
AcDbEntity
8
0
6
ByLayer
62
1
370
-1
100
AcDbLine
10
33.02
20
-12.98956
11
33.02
21
-12.00912
0
LINE
5
66
100
AcDbEntity
8
0
6
ByLayer
62
1
370
-1
100
AcDbLine
10
33.02
20
-12.00912
11
33.8328
21
-12.00912
0
LINE
5
67
100
AcDbEntity
8
0
6
ByLayer
62
1
370
-1
100
AcDbLine
10
33.8328
20
-12.00912
11
33.8328
21
-8.509
0
LINE
5
68
100
AcDbEntity
8
0
6
ByLayer
62
1
370
-1
100
AcDbLine
10
33.8328
20
-8.509
11
33.02
21
-8.509
0
LINE
5
69
100
AcDbEntity
8
0
6
ByLayer
62
1
370
-1
100
AcDbLine
10
33.02
20
-8.509
11
33.02
21
-3.50012
0
LINE
5
6A
100
AcDbEntity
8
0
6
ByLayer
62
1
370
-1
100
AcDbLine
10
33.02
20
-3.50012
11
33.8328
21
-3.50012
0
LINE
5
6B
100
AcDbEntity
8
0
6
ByLayer
62
1
370
-1
100
AcDbLine
10
33.8328
20
-3.50012
11
33.8328
21
0
0
LINE
5
6C
100
AcDbEntity
8
0
6
ByLayer
62
1
370
-1
100
AcDbLine
10
33.8328
20
0
11
33.02
21
0
0
LINE
5
6D
100
AcDbEntity
8
0
6
ByLayer
62
1
370
-1
100
AcDbLine
10
33.02
20
0
11
33.02
21
0.98044
0
LINE
5
6E
100
AcDbEntity
8
0
6
ByLayer
62
1
370
-1
100
AcDbLine
10
13.97
20
0.98044
11
0
21
0.98044
0
LINE
5
6F
100
AcDbEntity
8
0
6
ByLayer
62
1
370
-1
100
AcDbLine
10
0
20
0.98044
11
0
21
0
0
LINE
5
70
100
AcDbEntity
8
0
6
ByLayer
62
1
370
-1
100
AcDbLine
10
0
20
0
11
-0.8128
21
0
0
LINE
5
71
100
AcDbEntity
8
0
6
ByLayer
62
1
370
-1
100
AcDbLine
10
-0.8128
20
0
11
-0.8128
21
-3.50012
0
LINE
5
72
100
AcDbEntity
8
0
6
ByLayer
62
1
370
-1
100
AcDbLine
10
-0.8128
20
-3.50012
11
0
21
-3.50012
0
LINE
5
73
100
AcDbEntity
8
0
6
ByLayer
62
1
370
-1
100
AcDbLine
10
0
20
-3.50012
11
0
21
-8.509
0
LINE
5
74
100
AcDbEntity
8
0
6
ByLayer
62
1
370
-1
100
AcDbLine
10
0
20
-8.509
11
-0.8128
21
-8.509
0
LINE
5
75
100
AcDbEntity
8
0
6
ByLayer
62
1
370
-1
100
AcDbLine
10
-0.8128
20
-8.509
11
-0.8128
21
-12.00912
0
LINE
5
76
100
AcDbEntity
8
0
6
ByLayer
62
1
370
-1
100
AcDbLine
10
-0.8128
20
-12.00912
11
0
21
-12.00912
0
LINE
5
77
100
AcDbEntity
8
0
6
ByLayer
62
1
370
-1
100
AcDbLine
10
0
20
-12.00912
11
0
21
-12.98956
0
LINE
5
78
100
AcDbEntity
8
0
6
ByLayer
62
1
370
-1
100
AcDbLine
10
0
20
-12.98956
11
13.97
21
-12.98956
0
LINE
5
79
100
AcDbEntity
8
0
6
ByLayer
62
1
370
-1
100
AcDbLine
10
13.97
20
-12.98956
11
13.97
21
-12.00912
0
LINE
5
7A
100
AcDbEntity
8
0
6
ByLayer
62
1
370
-1
100
AcDbLine
10
13.97
20
-12.00912
11
14.7828
21
-12.00912
0
LINE
5
7B
100
AcDbEntity
8
0
6
ByLayer
62
1
370
-1
100
AcDbLine
10
14.7828
20
-12.00912
11
14.7828
21
-8.509
0
LINE
5
7C
100
AcDbEntity
8
0
6
ByLayer
62
1
370
-1
100
AcDbLine
10
14.7828
20
-8.509
11
13.97
21
-8.509
0
LINE
5
7D
100
AcDbEntity
8
0
6
ByLayer
62
1
370
-1
100
AcDbLine
10
13.97
20
-8.509
11
13.97
21
-3.50012
0
LINE
5
7E
100
AcDbEntity
8
0
6
ByLayer
62
1
370
-1
100
AcDbLine
10
13.97
20
-3.50012
11
14.7828
21
-3.50012
0
LINE
5
7F
100
AcDbEntity
8
0
6
ByLayer
62
1
370
-1
100
AcDbLine
10
14.7828
20
-3.50012
11
14.7828
21
0
0
LINE
5
80
100
AcDbEntity
8
0
6
ByLayer
62
1
370
-1
100
AcDbLine
10
14.7828
20
0
11
13.97
21
0
0
LINE
5
81
100
AcDbEntity
8
0
6
ByLayer
62
1
370
-1
100
AcDbLine
10
13.97
20
0
11
13.97
21
0.98044
0
LINE
5
82
100
AcDbEntity
8
0
6
ByLayer
62
1
370
-1
100
AcDbLine
10
52.07
20
-18.06956
11
38.1
21
-18.06956
0
LINE
5
83
100
AcDbEntity
8
0
6
ByLayer
62
1
370
-1
100
AcDbLine
10
38.1
20
-18.06956
11
38.1
21
-19.05
0
LINE
5
84
100
AcDbEntity
8
0
6
ByLayer
62
1
370
-1
100
AcDbLine
10
38.1
20
-19.05
11
37.2872
21
-19.05
0
LINE
5
85
100
AcDbEntity
8
0
6
ByLayer
62
1
370
-1
100
AcDbLine
10
37.2872
20
-19.05
11
37.2872
21
-22.55012
0
LINE
5
86
100
AcDbEntity
8
0
6
ByLayer
62
1
370
-1
100
AcDbLine
10
37.2872
20
-22.55012
11
38.1
21
-22.55012
0
LINE
5
87
100
AcDbEntity
8
0
6
ByLayer
62
1
370
-1
100
AcDbLine
10
38.1
20
-22.55012
11
38.1
21
-27.559
0
LINE
5
88
100
AcDbEntity
8
0
6
ByLayer
62
1
370
-1
100
AcDbLine
10
38.1
20
-27.559
11
37.2872
21
-27.559
0
LINE
5
89
100
AcDbEntity
8
0
6
ByLayer
62
1
370
-1
100
AcDbLine
10
37.2872
20
-27.559
11
37.2872
21
-31.05912
0
LINE
5
8A
100
AcDbEntity
8
0
6
ByLayer
62
1
370
-1
100
AcDbLine
10
37.2872
20
-31.05912
11
38.1
21
-31.05912
0
LINE
5
8B
100
AcDbEntity
8
0
6
ByLayer
62
1
370
-1
100
AcDbLine
10
38.1
20
-31.05912
11
38.1
21
-32.03956
0
LINE
5
8C
100
AcDbEntity
8
0
6
ByLayer
62
1
370
-1
100
AcDbLine
10
38.1
20
-32.03956
11
52.07
21
-32.03956
0
LINE
5
8D
100
AcDbEntity
8
0
6
ByLayer
62
1
370
-1
100
AcDbLine
10
52.07
20
-32.03956
11
52.07
21
-31.05912
0
LINE
5
8E
100
AcDbEntity
8
0
6
ByLayer
62
1
370
-1
100
AcDbLine
10
52.07
20
-31.05912
11
52.8828
21
-31.05912
0
LINE
5
8F
100
AcDbEntity
8
0
6
ByLayer
62
1
370
-1
100
AcDbLine
10
52.8828
20
-31.05912
11
52.8828
21
-27.559
0
LINE
5
90
100
AcDbEntity
8
0
6
ByLayer
62
1
370
-1
100
AcDbLine
10
52.8828
20
-27.559
11
52.07
21
-27.559
0
LINE
5
91
100
AcDbEntity
8
0
6
ByLayer
62
1
370
-1
100
AcDbLine
10
52.07
20
-27.559
11
52.07
21
-22.55012
0
LINE
5
92
100
AcDbEntity
8
0
6
ByLayer
62
1
370
-1
100
AcDbLine
10
52.07
20
-22.55012
11
52.8828
21
-22.55012
0
LINE
5
93
100
AcDbEntity
8
0
6
ByLayer
62
1
370
-1
100
AcDbLine
10
52.8828
20
-22.55012
11
52.8828
21
-19.05
0
LINE
5
94
100
AcDbEntity
8
0
6
ByLayer
62
1
370
-1
100
AcDbLine
10
52.8828
20
-19.05
11
52.07
21
-19.05
0
LINE
5
95
100
AcDbEntity
8
0
6
ByLayer
62
1
370
-1
100
AcDbLine
10
52.07
20
-19.05
11
52.07
21
-18.06956
0
LINE
5
96
100
AcDbEntity
8
0
6
ByLayer
62
1
370
-1
100
AcDbLine
10
33.02
20
-18.06956
11
19.05
21
-18.06956
0
LINE
5
97
100
AcDbEntity
8
0
6
ByLayer
62
1
370
-1
100
AcDbLine
10
19.05
20
-18.06956
11
19.05
21
-19.05
0
LINE
5
98
100
AcDbEntity
8
0
6
ByLayer
62
1
370
-1
100
AcDbLine
10
19.05
20
-19.05
11
18.2372
21
-19.05
0
LINE
5
99
100
AcDbEntity
8
0
6
ByLayer
62
1
370
-1
100
AcDbLine
10
18.2372
20
-19.05
11
18.2372
21
-22.55012
0
LINE
5
9A
100
AcDbEntity
8
0
6
ByLayer
62
1
370
-1
100
AcDbLine
10
18.2372
20
-22.55012
11
19.05
21
-22.55012
0
LINE
5
9B
100
AcDbEntity
8
0
6
ByLayer
62
1
370
-1
100
AcDbLine
10
19.05
20
-22.55012
11
19.05
21
-27.559
0
LINE
5
9C
100
AcDbEntity
8
0
6
ByLayer
62
1
370
-1
100
AcDbLine
10
19.05
20
-27.559
11
18.2372
21
-27.559
0
LINE
5
9D
100
AcDbEntity
8
0
6
ByLayer
62
1
370
-1
100
AcDbLine
10
18.2372
20
-27.559
11
18.2372
21
-31.05912
0
LINE
5
9E
100
AcDbEntity
8
0
6
ByLayer
62
1
370
-1
100
AcDbLine
10
18.2372
20
-31.05912
11
19.05
21
-31.05912
0
LINE
5
9F
100
AcDbEntity
8
0
6
ByLayer
62
1
370
-1
100
AcDbLine
10
19.05
20
-31.05912
11
19.05
21
-32.03956
0
LINE
5
A0
100
AcDbEntity
8
0
6
ByLayer
62
1
370
-1
100
AcDbLine
10
19.05
20
-32.03956
11
33.02
21
-32.03956
0
LINE
5
A1
100
AcDbEntity
8
0
6
ByLayer
62
1
370
-1
100
AcDbLine
10
33.02
20
-32.03956
11
33.02
21
-31.05912
0
LINE
5
A2
100
AcDbEntity
8
0
6
ByLayer
62
1
370
-1
100
AcDbLine
10
33.02
20
-31.05912
11
33.8328
21
-31.05912
0
LINE
5
A3
100
AcDbEntity
8
0
6
ByLayer
62
1
370
-1
100
AcDbLine
10
33.8328
20
-31.05912
11
33.8328
21
-27.559
0
LINE
5
A4
100
AcDbEntity
8
0
6
ByLayer
62
1
370
-1
100
AcDbLine
10
33.8328
20
-27.559
11
33.02
21
-27.559
0
LINE
5
A5
100
AcDbEntity
8
0
6
ByLayer
62
1
370
-1
100
AcDbLine
10
33.02
20
-27.559
11
33.02
21
-22.55012
0
LINE
5
A6
100
AcDbEntity
8
0
6
ByLayer
62
1
370
-1
100
AcDbLine
10
33.02
20
-22.55012
11
33.8328
21
-22.55012
0
LINE
5
A7
100
AcDbEntity
8
0
6
ByLayer
62
1
370
-1
100
AcDbLine
10
33.8328
20
-22.55012
11
33.8328
21
-19.05
0
LINE
5
A8
100
AcDbEntity
8
0
6
ByLayer
62
1
370
-1
100
AcDbLine
10
33.8328
20
-19.05
11
33.02
21
-19.05
0
LINE
5
A9
100
AcDbEntity
8
0
6
ByLayer
62
1
370
-1
100
AcDbLine
10
33.02
20
-19.05
11
33.02
21
-18.06956
0
LINE
5
AA
100
AcDbEntity
8
0
6
ByLayer
62
1
370
-1
100
AcDbLine
10
13.97
20
-18.06956
11
0
21
-18.06956
0
LINE
5
AB
100
AcDbEntity
8
0
6
ByLayer
62
1
370
-1
100
AcDbLine
10
0
20
-18.06956
11
0
21
-19.05
0
LINE
5
AC
100
AcDbEntity
8
0
6
ByLayer
62
1
370
-1
100
AcDbLine
10
0
20
-19.05
11
-0.8128
21
-19.05
0
LINE
5
AD
100
AcDbEntity
8
0
6
ByLayer
62
1
370
-1
100
AcDbLine
10
-0.8128
20
-19.05
11
-0.8128
21
-22.55012
0
LINE
5
AE
100
AcDbEntity
8
0
6
ByLayer
62
1
370
-1
100
AcDbLine
10
-0.8128
20
-22.55012
11
0
21
-22.55012
0
LINE
5
AF
100
AcDbEntity
8
0
6
ByLayer
62
1
370
-1
100
AcDbLine
10
0
20
-22.55012
11
0
21
-27.559
0
LINE
5
B0
100
AcDbEntity
8
0
6
ByLayer
62
1
370
-1
100
AcDbLine
10
0
20
-27.559
11
-0.8128
21
-27.559
0
LINE
5
B1
100
AcDbEntity
8
0
6
ByLayer
62
1
370
-1
100
AcDbLine
10
-0.8128
20
-27.559
11
-0.8128
21
-31.05912
0
LINE
5
B2
100
AcDbEntity
8
0
6
ByLayer
62
1
370
-1
100
AcDbLine
10
-0.8128
20
-31.05912
11
0
21
-31.05912
0
LINE
5
B3
100
AcDbEntity
8
0
6
ByLayer
62
1
370
-1
100
AcDbLine
10
0
20
-31.05912
11
0
21
-32.03956
0
LINE
5
B4
100
AcDbEntity
8
0
6
ByLayer
62
1
370
-1
100
AcDbLine
10
0
20
-32.03956
11
13.97
21
-32.03956
0
LINE
5
B5
100
AcDbEntity
8
0
6
ByLayer
62
1
370
-1
100
AcDbLine
10
13.97
20
-32.03956
11
13.97
21
-31.05912
0
LINE
5
B6
100
AcDbEntity
8
0
6
ByLayer
62
1
370
-1
100
AcDbLine
10
13.97
20
-31.05912
11
14.7828
21
-31.05912
0
LINE
5
B7
100
AcDbEntity
8
0
6
ByLayer
62
1
370
-1
100
AcDbLine
10
14.7828
20
-31.05912
11
14.7828
21
-27.559
0
LINE
5
B8
100
AcDbEntity
8
0
6
ByLayer
62
1
370
-1
100
AcDbLine
10
14.7828
20
-27.559
11
13.97
21
-27.559
0
LINE
5
B9
100
AcDbEntity
8
0
6
ByLayer
62
1
370
-1
100
AcDbLine
10
13.97
20
-27.559
11
13.97
21
-22.55012
0
LINE
5
BA
100
AcDbEntity
8
0
6
ByLayer
62
1
370
-1
100
AcDbLine
10
13.97
20
-22.55012
11
14.7828
21
-22.55012
0
LINE
5
BB
100
AcDbEntity
8
0
6
ByLayer
62
1
370
-1
100
AcDbLine
10
14.7828
20
-22.55012
11
14.7828
21
-19.05
0
LINE
5
BC
100
AcDbEntity
8
0
6
ByLayer
62
1
370
-1
100
AcDbLine
10
14.7828
20
-19.05
11
13.97
21
-19.05
0
LINE
5
BD
100
AcDbEntity
8
0
6
ByLayer
62
1
370
-1
100
AcDbLine
10
13.97
20
-19.05
11
13.97
21
-18.06956
0
LINE
5
BE
100
AcDbEntity
8
0
6
ByLayer
62
1
370
-1
100
AcDbLine
10
52.07
20
-37.11956
11
38.1
21
-37.11956
0
LINE
5
BF
100
AcDbEntity
8
0
6
ByLayer
62
1
370
-1
100
AcDbLine
10
38.1
20
-37.11956
11
38.1
21
-38.1
0
LINE
5
C0
100
AcDbEntity
8
0
6
ByLayer
62
1
370
-1
100
AcDbLine
10
38.1
20
-38.1
11
37.2872
21
-38.1
0
LINE
5
C1
100
AcDbEntity
8
0
6
ByLayer
62
1
370
-1
100
AcDbLine
10
37.2872
20
-38.1
11
37.2872
21
-41.60012
0
LINE
5
C2
100
AcDbEntity
8
0
6
ByLayer
62
1
370
-1
100
AcDbLine
10
37.2872
20
-41.60012
11
38.1
21
-41.60012
0
LINE
5
C3
100
AcDbEntity
8
0
6
ByLayer
62
1
370
-1
100
AcDbLine
10
38.1
20
-41.60012
11
38.1
21
-46.6089999997
0
LINE
5
C4
100
AcDbEntity
8
0
6
ByLayer
62
1
370
-1
100
AcDbLine
10
38.1
20
-46.6089999997
11
37.2872
21
-46.6089999997
0
LINE
5
C5
100
AcDbEntity
8
0
6
ByLayer
62
1
370
-1
100
AcDbLine
10
37.2872
20
-46.6089999997
11
37.2872
21
-50.1091199997
0
LINE
5
C6
100
AcDbEntity
8
0
6
ByLayer
62
1
370
-1
100
AcDbLine
10
37.2872
20
-50.1091199997
11
38.1
21
-50.1091199997
0
LINE
5
C7
100
AcDbEntity
8
0
6
ByLayer
62
1
370
-1
100
AcDbLine
10
38.1
20
-50.1091199997
11
38.1
21
-51.0895599997
0
LINE
5
C8
100
AcDbEntity
8
0
6
ByLayer
62
1
370
-1
100
AcDbLine
10
38.1
20
-51.0895599997
11
52.07
21
-51.0895599997
0
LINE
5
C9
100
AcDbEntity
8
0
6
ByLayer
62
1
370
-1
100
AcDbLine
10
52.07
20
-51.0895599997
11
52.07
21
-50.1091199997
0
LINE
5
CA
100
AcDbEntity
8
0
6
ByLayer
62
1
370
-1
100
AcDbLine
10
52.07
20
-50.1091199997
11
52.8828
21
-50.1091199997
0
LINE
5
CB
100
AcDbEntity
8
0
6
ByLayer
62
1
370
-1
100
AcDbLine
10
52.8828
20
-50.1091199997
11
52.8828
21
-46.6089999997
0
LINE
5
CC
100
AcDbEntity
8
0
6
ByLayer
62
1
370
-1
100
AcDbLine
10
52.8828
20
-46.6089999997
11
52.07
21
-46.6089999997
0
LINE
5
CD
100
AcDbEntity
8
0
6
ByLayer
62
1
370
-1
100
AcDbLine
10
52.07
20
-46.6089999997
11
52.07
21
-41.60012
0
LINE
5
CE
100
AcDbEntity
8
0
6
ByLayer
62
1
370
-1
100
AcDbLine
10
52.07
20
-41.60012
11
52.8828
21
-41.60012
0
LINE
5
CF
100
AcDbEntity
8
0
6
ByLayer
62
1
370
-1
100
AcDbLine
10
52.8828
20
-41.60012
11
52.8828
21
-38.1
0
LINE
5
D0
100
AcDbEntity
8
0
6
ByLayer
62
1
370
-1
100
AcDbLine
10
52.8828
20
-38.1
11
52.07
21
-38.1
0
LINE
5
D1
100
AcDbEntity
8
0
6
ByLayer
62
1
370
-1
100
AcDbLine
10
52.07
20
-38.1
11
52.07
21
-37.11956
0
LINE
5
D2
100
AcDbEntity
8
0
6
ByLayer
62
1
370
-1
100
AcDbLine
10
52.07
20
-56.1695599997
11
38.1
21
-56.1695599997
0
LINE
5
D3
100
AcDbEntity
8
0
6
ByLayer
62
1
370
-1
100
AcDbLine
10
38.1
20
-56.1695599997
11
38.1
21
-57.1499999997
0
LINE
5
D4
100
AcDbEntity
8
0
6
ByLayer
62
1
370
-1
100
AcDbLine
10
38.1
20
-57.1499999997
11
37.2872
21
-57.1499999997
0
LINE
5
D5
100
AcDbEntity
8
0
6
ByLayer
62
1
370
-1
100
AcDbLine
10
37.2872
20
-57.1499999997
11
37.2872
21
-60.6501199997
0
LINE
5
D6
100
AcDbEntity
8
0
6
ByLayer
62
1
370
-1
100
AcDbLine
10
37.2872
20
-60.6501199997
11
38.1
21
-60.6501199997
0
LINE
5
D7
100
AcDbEntity
8
0
6
ByLayer
62
1
370
-1
100
AcDbLine
10
38.1
20
-60.6501199997
11
38.1
21
-65.6589999997
0
LINE
5
D8
100
AcDbEntity
8
0
6
ByLayer
62
1
370
-1
100
AcDbLine
10
38.1
20
-65.6589999997
11
37.2872
21
-65.6589999997
0
LINE
5
D9
100
AcDbEntity
8
0
6
ByLayer
62
1
370
-1
100
AcDbLine
10
37.2872
20
-65.6589999997
11
37.2872
21
-69.1591199997
0
LINE
5
DA
100
AcDbEntity
8
0
6
ByLayer
62
1
370
-1
100
AcDbLine
10
37.2872
20
-69.1591199997
11
38.1
21
-69.1591199997
0
LINE
5
DB
100
AcDbEntity
8
0
6
ByLayer
62
1
370
-1
100
AcDbLine
10
38.1
20
-69.1591199997
11
38.1
21
-70.1395599997
0
LINE
5
DC
100
AcDbEntity
8
0
6
ByLayer
62
1
370
-1
100
AcDbLine
10
38.1
20
-70.1395599997
11
52.07
21
-70.1395599997
0
LINE
5
DD
100
AcDbEntity
8
0
6
ByLayer
62
1
370
-1
100
AcDbLine
10
52.07
20
-70.1395599997
11
52.07
21
-69.1591199997
0
LINE
5
DE
100
AcDbEntity
8
0
6
ByLayer
62
1
370
-1
100
AcDbLine
10
52.07
20
-69.1591199997
11
52.8828
21
-69.1591199997
0
LINE
5
DF
100
AcDbEntity
8
0
6
ByLayer
62
1
370
-1
100
AcDbLine
10
52.8828
20
-69.1591199997
11
52.8828
21
-65.6589999997
0
LINE
5
E0
100
AcDbEntity
8
0
6
ByLayer
62
1
370
-1
100
AcDbLine
10
52.8828
20
-65.6589999997
11
52.07
21
-65.6589999997
0
LINE
5
E1
100
AcDbEntity
8
0
6
ByLayer
62
1
370
-1
100
AcDbLine
10
52.07
20
-65.6589999997
11
52.07
21
-60.6501199997
0
LINE
5
E2
100
AcDbEntity
8
0
6
ByLayer
62
1
370
-1
100
AcDbLine
10
52.07
20
-60.6501199997
11
52.8828
21
-60.6501199997
0
LINE
5
E3
100
AcDbEntity
8
0
6
ByLayer
62
1
370
-1
100
AcDbLine
10
52.8828
20
-60.6501199997
11
52.8828
21
-57.1499999997
0
LINE
5
E4
100
AcDbEntity
8
0
6
ByLayer
62
1
370
-1
100
AcDbLine
10
52.8828
20
-57.1499999997
11
52.07
21
-57.1499999997
0
LINE
5
E5
100
AcDbEntity
8
0
6
ByLayer
62
1
370
-1
100
AcDbLine
10
52.07
20
-57.1499999997
11
52.07
21
-56.1695599997
0
LINE
5
E6
100
AcDbEntity
8
0
6
ByLayer
62
1
370
-1
100
AcDbLine
10
52.07
20
-75.2195599997
11
38.1
21
-75.2195599997
0
LINE
5
E7
100
AcDbEntity
8
0
6
ByLayer
62
1
370
-1
100
AcDbLine
10
38.1
20
-75.2195599997
11
38.1
21
-76.1999999997
0
LINE
5
E8
100
AcDbEntity
8
0
6
ByLayer
62
1
370
-1
100
AcDbLine
10
38.1
20
-76.1999999997
11
37.2872
21
-76.1999999997
0
LINE
5
E9
100
AcDbEntity
8
0
6
ByLayer
62
1
370
-1
100
AcDbLine
10
37.2872
20
-76.1999999997
11
37.2872
21
-79.7001199997
0
LINE
5
EA
100
AcDbEntity
8
0
6
ByLayer
62
1
370
-1
100
AcDbLine
10
37.2872
20
-79.7001199997
11
38.1
21
-79.7001199997
0
LINE
5
EB
100
AcDbEntity
8
0
6
ByLayer
62
1
370
-1
100
AcDbLine
10
38.1
20
-79.7001199997
11
38.1
21
-84.7089999997
0
LINE
5
EC
100
AcDbEntity
8
0
6
ByLayer
62
1
370
-1
100
AcDbLine
10
38.1
20
-84.7089999997
11
37.2872
21
-84.7089999997
0
LINE
5
ED
100
AcDbEntity
8
0
6
ByLayer
62
1
370
-1
100
AcDbLine
10
37.2872
20
-84.7089999997
11
37.2872
21
-88.2091199997
0
LINE
5
EE
100
AcDbEntity
8
0
6
ByLayer
62
1
370
-1
100
AcDbLine
10
37.2872
20
-88.2091199997
11
38.1
21
-88.2091199997
0
LINE
5
EF
100
AcDbEntity
8
0
6
ByLayer
62
1
370
-1
100
AcDbLine
10
38.1
20
-88.2091199997
11
38.1
21
-89.1895599997
0
LINE
5
F0
100
AcDbEntity
8
0
6
ByLayer
62
1
370
-1
100
AcDbLine
10
38.1
20
-89.1895599997
11
52.07
21
-89.1895599997
0
LINE
5
F1
100
AcDbEntity
8
0
6
ByLayer
62
1
370
-1
100
AcDbLine
10
52.07
20
-89.1895599997
11
52.07
21
-88.2091199997
0
LINE
5
F2
100
AcDbEntity
8
0
6
ByLayer
62
1
370
-1
100
AcDbLine
10
52.07
20
-88.2091199997
11
52.8828
21
-88.2091199997
0
LINE
5
F3
100
AcDbEntity
8
0
6
ByLayer
62
1
370
-1
100
AcDbLine
10
52.8828
20
-88.2091199997
11
52.8828
21
-84.7089999997
0
LINE
5
F4
100
AcDbEntity
8
0
6
ByLayer
62
1
370
-1
100
AcDbLine
10
52.8828
20
-84.7089999997
11
52.07
21
-84.7089999997
0
LINE
5
F5
100
AcDbEntity
8
0
6
ByLayer
62
1
370
-1
100
AcDbLine
10
52.07
20
-84.7089999997
11
52.07
21
-79.7001199997
0
LINE
5
F6
100
AcDbEntity
8
0
6
ByLayer
62
1
370
-1
100
AcDbLine
10
52.07
20
-79.7001199997
11
52.8828
21
-79.7001199997
0
LINE
5
F7
100
AcDbEntity
8
0
6
ByLayer
62
1
370
-1
100
AcDbLine
10
52.8828
20
-79.7001199997
11
52.8828
21
-76.1999999997
0
LINE
5
F8
100
AcDbEntity
8
0
6
ByLayer
62
1
370
-1
100
AcDbLine
10
52.8828
20
-76.1999999997
11
52.07
21
-76.1999999997
0
LINE
5
F9
100
AcDbEntity
8
0
6
ByLayer
62
1
370
-1
100
AcDbLine
10
52.07
20
-76.1999999997
11
52.07
21
-75.2195599997
0
LINE
5
FA
100
AcDbEntity
8
0
6
ByLayer
62
1
370
-1
100
AcDbLine
10
33.02
20
-75.2195599997
11
19.05
21
-75.2195599997
0
LINE
5
FB
100
AcDbEntity
8
0
6
ByLayer
62
1
370
-1
100
AcDbLine
10
19.05
20
-75.2195599997
11
19.05
21
-76.1999999997
0
LINE
5
FC
100
AcDbEntity
8
0
6
ByLayer
62
1
370
-1
100
AcDbLine
10
19.05
20
-76.1999999997
11
18.2372
21
-76.1999999997
0
LINE
5
FD
100
AcDbEntity
8
0
6
ByLayer
62
1
370
-1
100
AcDbLine
10
18.2372
20
-76.1999999997
11
18.2372
21
-79.7001199997
0
LINE
5
FE
100
AcDbEntity
8
0
6
ByLayer
62
1
370
-1
100
AcDbLine
10
18.2372
20
-79.7001199997
11
19.05
21
-79.7001199997
0
LINE
5
FF
100
AcDbEntity
8
0
6
ByLayer
62
1
370
-1
100
AcDbLine
10
19.05
20
-79.7001199997
11
19.05
21
-84.7089999997
0
LINE
5
100
100
AcDbEntity
8
0
6
ByLayer
62
1
370
-1
100
AcDbLine
10
19.05
20
-84.7089999997
11
18.2372
21
-84.7089999997
0
LINE
5
101
100
AcDbEntity
8
0
6
ByLayer
62
1
370
-1
100
AcDbLine
10
18.2372
20
-84.7089999997
11
18.2372
21
-88.2091199997
0
LINE
5
102
100
AcDbEntity
8
0
6
ByLayer
62
1
370
-1
100
AcDbLine
10
18.2372
20
-88.2091199997
11
19.05
21
-88.2091199997
0
LINE
5
103
100
AcDbEntity
8
0
6
ByLayer
62
1
370
-1
100
AcDbLine
10
19.05
20
-88.2091199997
11
19.05
21
-89.1895599997
0
LINE
5
104
100
AcDbEntity
8
0
6
ByLayer
62
1
370
-1
100
AcDbLine
10
19.05
20
-89.1895599997
11
33.02
21
-89.1895599997
0
LINE
5
105
100
AcDbEntity
8
0
6
ByLayer
62
1
370
-1
100
AcDbLine
10
33.02
20
-89.1895599997
11
33.02
21
-88.2091199997
0
LINE
5
106
100
AcDbEntity
8
0
6
ByLayer
62
1
370
-1
100
AcDbLine
10
33.02
20
-88.2091199997
11
33.8328
21
-88.2091199997
0
LINE
5
107
100
AcDbEntity
8
0
6
ByLayer
62
1
370
-1
100
AcDbLine
10
33.8328
20
-88.2091199997
11
33.8328
21
-84.7089999997
0
LINE
5
108
100
AcDbEntity
8
0
6
ByLayer
62
1
370
-1
100
AcDbLine
10
33.8328
20
-84.7089999997
11
33.02
21
-84.7089999997
0
LINE
5
109
100
AcDbEntity
8
0
6
ByLayer
62
1
370
-1
100
AcDbLine
10
33.02
20
-84.7089999997
11
33.02
21
-79.7001199997
0
LINE
5
10A
100
AcDbEntity
8
0
6
ByLayer
62
1
370
-1
100
AcDbLine
10
33.02
20
-79.7001199997
11
33.8328
21
-79.7001199997
0
LINE
5
10B
100
AcDbEntity
8
0
6
ByLayer
62
1
370
-1
100
AcDbLine
10
33.8328
20
-79.7001199997
11
33.8328
21
-76.1999999997
0
LINE
5
10C
100
AcDbEntity
8
0
6
ByLayer
62
1
370
-1
100
AcDbLine
10
33.8328
20
-76.1999999997
11
33.02
21
-76.1999999997
0
LINE
5
10D
100
AcDbEntity
8
0
6
ByLayer
62
1
370
-1
100
AcDbLine
10
33.02
20
-76.1999999997
11
33.02
21
-75.2195599997
0
LINE
5
10E
100
AcDbEntity
8
0
6
ByLayer
62
1
370
-1
100
AcDbLine
10
30.63875
20
-56.1695599997
11
16.66875
21
-56.1695599997
0
LINE
5
10F
100
AcDbEntity
8
0
6
ByLayer
62
1
370
-1
100
AcDbLine
10
16.66875
20
-56.1695599997
11
16.66875
21
-57.1499999997
0
LINE
5
110
100
AcDbEntity
8
0
6
ByLayer
62
1
370
-1
100
AcDbLine
10
16.66875
20
-57.1499999997
11
15.85595
21
-57.1499999997
0
LINE
5
111
100
AcDbEntity
8
0
6
ByLayer
62
1
370
-1
100
AcDbLine
10
15.85595
20
-57.1499999997
11
15.85595
21
-60.6501199997
0
LINE
5
112
100
AcDbEntity
8
0
6
ByLayer
62
1
370
-1
100
AcDbLine
10
15.85595
20
-60.6501199997
11
16.66875
21
-60.6501199997
0
LINE
5
113
100
AcDbEntity
8
0
6
ByLayer
62
1
370
-1
100
AcDbLine
10
16.66875
20
-60.6501199997
11
16.66875
21
-65.6589999997
0
LINE
5
114
100
AcDbEntity
8
0
6
ByLayer
62
1
370
-1
100
AcDbLine
10
16.66875
20
-65.6589999997
11
15.85595
21
-65.6589999997
0
LINE
5
115
100
AcDbEntity
8
0
6
ByLayer
62
1
370
-1
100
AcDbLine
10
15.85595
20
-65.6589999997
11
15.85595
21
-69.1591199997
0
LINE
5
116
100
AcDbEntity
8
0
6
ByLayer
62
1
370
-1
100
AcDbLine
10
15.85595
20
-69.1591199997
11
16.66875
21
-69.1591199997
0
LINE
5
117
100
AcDbEntity
8
0
6
ByLayer
62
1
370
-1
100
AcDbLine
10
16.66875
20
-69.1591199997
11
16.66875
21
-70.1395599997
0
LINE
5
118
100
AcDbEntity
8
0
6
ByLayer
62
1
370
-1
100
AcDbLine
10
16.66875
20
-70.1395599997
11
30.63875
21
-70.1395599997
0
LINE
5
119
100
AcDbEntity
8
0
6
ByLayer
62
1
370
-1
100
AcDbLine
10
30.63875
20
-70.1395599997
11
30.63875
21
-69.1591199997
0
LINE
5
11A
100
AcDbEntity
8
0
6
ByLayer
62
1
370
-1
100
AcDbLine
10
30.63875
20
-69.1591199997
11
31.45155
21
-69.1591199997
0
LINE
5
11B
100
AcDbEntity
8
0
6
ByLayer
62
1
370
-1
100
AcDbLine
10
31.45155
20
-69.1591199997
11
31.45155
21
-65.6589999997
0
LINE
5
11C
100
AcDbEntity
8
0
6
ByLayer
62
1
370
-1
100
AcDbLine
10
31.45155
20
-65.6589999997
11
30.63875
21
-65.6589999997
0
LINE
5
11D
100
AcDbEntity
8
0
6
ByLayer
62
1
370
-1
100
AcDbLine
10
30.63875
20
-65.6589999997
11
30.63875
21
-60.6501199997
0
LINE
5
11E
100
AcDbEntity
8
0
6
ByLayer
62
1
370
-1
100
AcDbLine
10
30.63875
20
-60.6501199997
11
31.45155
21
-60.6501199997
0
LINE
5
11F
100
AcDbEntity
8
0
6
ByLayer
62
1
370
-1
100
AcDbLine
10
31.45155
20
-60.6501199997
11
31.45155
21
-57.1499999997
0
LINE
5
120
100
AcDbEntity
8
0
6
ByLayer
62
1
370
-1
100
AcDbLine
10
31.45155
20
-57.1499999997
11
30.63875
21
-57.1499999997
0
LINE
5
121
100
AcDbEntity
8
0
6
ByLayer
62
1
370
-1
100
AcDbLine
10
30.63875
20
-57.1499999997
11
30.63875
21
-56.1695599997
0
LINE
5
122
100
AcDbEntity
8
0
6
ByLayer
62
1
370
-1
100
AcDbLine
10
28.2575
20
-37.11956
11
14.2875
21
-37.11956
0
LINE
5
123
100
AcDbEntity
8
0
6
ByLayer
62
1
370
-1
100
AcDbLine
10
14.2875
20
-37.11956
11
14.2875
21
-38.1
0
LINE
5
124
100
AcDbEntity
8
0
6
ByLayer
62
1
370
-1
100
AcDbLine
10
14.2875
20
-38.1
11
13.4747
21
-38.1
0
LINE
5
125
100
AcDbEntity
8
0
6
ByLayer
62
1
370
-1
100
AcDbLine
10
13.4747
20
-38.1
11
13.4747
21
-41.60012
0
LINE
5
126
100
AcDbEntity
8
0
6
ByLayer
62
1
370
-1
100
AcDbLine
10
13.4747
20
-41.60012
11
14.2875
21
-41.60012
0
LINE
5
127
100
AcDbEntity
8
0
6
ByLayer
62
1
370
-1
100
AcDbLine
10
14.2875
20
-41.60012
11
14.2875
21
-46.6089999997
0
LINE
5
128
100
AcDbEntity
8
0
6
ByLayer
62
1
370
-1
100
AcDbLine
10
14.2875
20
-46.6089999997
11
13.4747
21
-46.6089999997
0
LINE
5
129
100
AcDbEntity
8
0
6
ByLayer
62
1
370
-1
100
AcDbLine
10
13.4747
20
-46.6089999997
11
13.4747
21
-50.1091199997
0
LINE
5
12A
100
AcDbEntity
8
0
6
ByLayer
62
1
370
-1
100
AcDbLine
10
13.4747
20
-50.1091199997
11
14.2875
21
-50.1091199997
0
LINE
5
12B
100
AcDbEntity
8
0
6
ByLayer
62
1
370
-1
100
AcDbLine
10
14.2875
20
-50.1091199997
11
14.2875
21
-51.0895599997
0
LINE
5
12C
100
AcDbEntity
8
0
6
ByLayer
62
1
370
-1
100
AcDbLine
10
14.2875
20
-51.0895599997
11
28.2575
21
-51.0895599997
0
LINE
5
12D
100
AcDbEntity
8
0
6
ByLayer
62
1
370
-1
100
AcDbLine
10
28.2575
20
-51.0895599997
11
28.2575
21
-50.1091199997
0
LINE
5
12E
100
AcDbEntity
8
0
6
ByLayer
62
1
370
-1
100
AcDbLine
10
28.2575
20
-50.1091199997
11
29.0703
21
-50.1091199997
0
LINE
5
12F
100
AcDbEntity
8
0
6
ByLayer
62
1
370
-1
100
AcDbLine
10
29.0703
20
-50.1091199997
11
29.0703
21
-46.6089999997
0
LINE
5
130
100
AcDbEntity
8
0
6
ByLayer
62
1
370
-1
100
AcDbLine
10
29.0703
20
-46.6089999997
11
28.2575
21
-46.6089999997
0
LINE
5
131
100
AcDbEntity
8
0
6
ByLayer
62
1
370
-1
100
AcDbLine
10
28.2575
20
-46.6089999997
11
28.2575
21
-41.60012
0
LINE
5
132
100
AcDbEntity
8
0
6
ByLayer
62
1
370
-1
100
AcDbLine
10
28.2575
20
-41.60012
11
29.0703
21
-41.60012
0
LINE
5
133
100
AcDbEntity
8
0
6
ByLayer
62
1
370
-1
100
AcDbLine
10
29.0703
20
-41.60012
11
29.0703
21
-38.1
0
LINE
5
134
100
AcDbEntity
8
0
6
ByLayer
62
1
370
-1
100
AcDbLine
10
29.0703
20
-38.1
11
28.2575
21
-38.1
0
LINE
5
135
100
AcDbEntity
8
0
6
ByLayer
62
1
370
-1
100
AcDbLine
10
28.2575
20
-38.1
11
28.2575
21
-37.11956
0
LINE
5
136
100
AcDbEntity
8
0
6
ByLayer
62
1
370
-1
100
AcDbLine
10
71.12
20
3.98044
11
57.15
21
3.98044
0
LINE
5
137
100
AcDbEntity
8
0
6
ByLayer
62
1
370
-1
100
AcDbLine
10
57.15
20
3.98044
11
57.15
21
3
0
LINE
5
138
100
AcDbEntity
8
0
6
ByLayer
62
1
370
-1
100
AcDbLine
10
57.15
20
3
11
56.3372
21
3
0
LINE
5
139
100
AcDbEntity
8
0
6
ByLayer
62
1
370
-1
100
AcDbLine
10
56.3372
20
3
11
56.3372
21
-0.50012
0
LINE
5
13A
100
AcDbEntity
8
0
6
ByLayer
62
1
370
-1
100
AcDbLine
10
56.3372
20
-0.50012
11
57.15
21
-0.50012
0
LINE
5
13B
100
AcDbEntity
8
0
6
ByLayer
62
1
370
-1
100
AcDbLine
10
57.15
20
-0.50012
11
57.15
21
-5.509
0
LINE
5
13C
100
AcDbEntity
8
0
6
ByLayer
62
1
370
-1
100
AcDbLine
10
57.15
20
-5.509
11
56.3372
21
-5.509
0
LINE
5
13D
100
AcDbEntity
8
0
6
ByLayer
62
1
370
-1
100
AcDbLine
10
56.3372
20
-5.509
11
56.3372
21
-9.00912
0
LINE
5
13E
100
AcDbEntity
8
0
6
ByLayer
62
1
370
-1
100
AcDbLine
10
56.3372
20
-9.00912
11
57.15
21
-9.00912
0
LINE
5
13F
100
AcDbEntity
8
0
6
ByLayer
62
1
370
-1
100
AcDbLine
10
57.15
20
-9.00912
11
57.15
21
-9.98956
0
LINE
5
140
100
AcDbEntity
8
0
6
ByLayer
62
1
370
-1
100
AcDbLine
10
57.15
20
-9.98956
11
71.12
21
-9.98956
0
LINE
5
141
100
AcDbEntity
8
0
6
ByLayer
62
1
370
-1
100
AcDbLine
10
71.12
20
-9.98956
11
71.12
21
-9.00912
0
LINE
5
142
100
AcDbEntity
8
0
6
ByLayer
62
1
370
-1
100
AcDbLine
10
71.12
20
-9.00912
11
71.9328
21
-9.00912
0
LINE
5
143
100
AcDbEntity
8
0
6
ByLayer
62
1
370
-1
100
AcDbLine
10
71.9328
20
-9.00912
11
71.9328
21
-5.509
0
LINE
5
144
100
AcDbEntity
8
0
6
ByLayer
62
1
370
-1
100
AcDbLine
10
71.9328
20
-5.509
11
71.12
21
-5.509
0
LINE
5
145
100
AcDbEntity
8
0
6
ByLayer
62
1
370
-1
100
AcDbLine
10
71.12
20
-5.509
11
71.12
21
-0.50012
0
LINE
5
146
100
AcDbEntity
8
0
6
ByLayer
62
1
370
-1
100
AcDbLine
10
71.12
20
-0.50012
11
71.9328
21
-0.50012
0
LINE
5
147
100
AcDbEntity
8
0
6
ByLayer
62
1
370
-1
100
AcDbLine
10
71.9328
20
-0.50012
11
71.9328
21
3
0
LINE
5
148
100
AcDbEntity
8
0
6
ByLayer
62
1
370
-1
100
AcDbLine
10
71.9328
20
3
11
71.12
21
3
0
LINE
5
149
100
AcDbEntity
8
0
6
ByLayer
62
1
370
-1
100
AcDbLine
10
71.12
20
3
11
71.12
21
3.98044
0
LINE
5
14A
100
AcDbEntity
8
0
6
ByLayer
62
1
370
-1
100
AcDbLine
10
71.12
20
-15.06956
11
57.15
21
-15.06956
0
LINE
5
14B
100
AcDbEntity
8
0
6
ByLayer
62
1
370
-1
100
AcDbLine
10
57.15
20
-15.06956
11
57.15
21
-16.05
0
LINE
5
14C
100
AcDbEntity
8
0
6
ByLayer
62
1
370
-1
100
AcDbLine
10
57.15
20
-16.05
11
56.3372
21
-16.05
0
LINE
5
14D
100
AcDbEntity
8
0
6
ByLayer
62
1
370
-1
100
AcDbLine
10
56.3372
20
-16.05
11
56.3372
21
-19.55012
0
LINE
5
14E
100
AcDbEntity
8
0
6
ByLayer
62
1
370
-1
100
AcDbLine
10
56.3372
20
-19.55012
11
57.15
21
-19.55012
0
LINE
5
14F
100
AcDbEntity
8
0
6
ByLayer
62
1
370
-1
100
AcDbLine
10
57.15
20
-19.55012
11
57.15
21
-24.559
0
LINE
5
150
100
AcDbEntity
8
0
6
ByLayer
62
1
370
-1
100
AcDbLine
10
57.15
20
-24.559
11
56.3372
21
-24.559
0
LINE
5
151
100
AcDbEntity
8
0
6
ByLayer
62
1
370
-1
100
AcDbLine
10
56.3372
20
-24.559
11
56.3372
21
-28.05912
0
LINE
5
152
100
AcDbEntity
8
0
6
ByLayer
62
1
370
-1
100
AcDbLine
10
56.3372
20
-28.05912
11
57.15
21
-28.05912
0
LINE
5
153
100
AcDbEntity
8
0
6
ByLayer
62
1
370
-1
100
AcDbLine
10
57.15
20
-28.05912
11
57.15
21
-29.03956
0
LINE
5
154
100
AcDbEntity
8
0
6
ByLayer
62
1
370
-1
100
AcDbLine
10
57.15
20
-29.03956
11
71.12
21
-29.03956
0
LINE
5
155
100
AcDbEntity
8
0
6
ByLayer
62
1
370
-1
100
AcDbLine
10
71.12
20
-29.03956
11
71.12
21
-28.05912
0
LINE
5
156
100
AcDbEntity
8
0
6
ByLayer
62
1
370
-1
100
AcDbLine
10
71.12
20
-28.05912
11
71.9328
21
-28.05912
0
LINE
5
157
100
AcDbEntity
8
0
6
ByLayer
62
1
370
-1
100
AcDbLine
10
71.9328
20
-28.05912
11
71.9328
21
-24.559
0
LINE
5
158
100
AcDbEntity
8
0
6
ByLayer
62
1
370
-1
100
AcDbLine
10
71.9328
20
-24.559
11
71.12
21
-24.559
0
LINE
5
159
100
AcDbEntity
8
0
6
ByLayer
62
1
370
-1
100
AcDbLine
10
71.12
20
-24.559
11
71.12
21
-19.55012
0
LINE
5
15A
100
AcDbEntity
8
0
6
ByLayer
62
1
370
-1
100
AcDbLine
10
71.12
20
-19.55012
11
71.9328
21
-19.55012
0
LINE
5
15B
100
AcDbEntity
8
0
6
ByLayer
62
1
370
-1
100
AcDbLine
10
71.9328
20
-19.55012
11
71.9328
21
-16.05
0
LINE
5
15C
100
AcDbEntity
8
0
6
ByLayer
62
1
370
-1
100
AcDbLine
10
71.9328
20
-16.05
11
71.12
21
-16.05
0
LINE
5
15D
100
AcDbEntity
8
0
6
ByLayer
62
1
370
-1
100
AcDbLine
10
71.12
20
-16.05
11
71.12
21
-15.06956
0
LINE
5
15E
100
AcDbEntity
8
0
6
ByLayer
62
1
370
-1
100
AcDbLine
10
71.12
20
-34.11956
11
57.15
21
-34.11956
0
LINE
5
15F
100
AcDbEntity
8
0
6
ByLayer
62
1
370
-1
100
AcDbLine
10
57.15
20
-34.11956
11
57.15
21
-35.1
0
LINE
5
160
100
AcDbEntity
8
0
6
ByLayer
62
1
370
-1
100
AcDbLine
10
57.15
20
-35.1
11
56.3372
21
-35.1
0
LINE
5
161
100
AcDbEntity
8
0
6
ByLayer
62
1
370
-1
100
AcDbLine
10
56.3372
20
-35.1
11
56.3372
21
-38.60012
0
LINE
5
162
100
AcDbEntity
8
0
6
ByLayer
62
1
370
-1
100
AcDbLine
10
56.3372
20
-38.60012
11
57.15
21
-38.60012
0
LINE
5
163
100
AcDbEntity
8
0
6
ByLayer
62
1
370
-1
100
AcDbLine
10
57.15
20
-38.60012
11
57.15
21
-43.609
0
LINE
5
164
100
AcDbEntity
8
0
6
ByLayer
62
1
370
-1
100
AcDbLine
10
57.15
20
-43.609
11
56.3372
21
-43.609
0
LINE
5
165
100
AcDbEntity
8
0
6
ByLayer
62
1
370
-1
100
AcDbLine
10
56.3372
20
-43.609
11
56.3372
21
-47.1091199997
0
LINE
5
166
100
AcDbEntity
8
0
6
ByLayer
62
1
370
-1
100
AcDbLine
10
56.3372
20
-47.1091199997
11
57.15
21
-47.1091199997
0
LINE
5
167
100
AcDbEntity
8
0
6
ByLayer
62
1
370
-1
100
AcDbLine
10
57.15
20
-47.1091199997
11
57.15
21
-48.0895599997
0
LINE
5
168
100
AcDbEntity
8
0
6
ByLayer
62
1
370
-1
100
AcDbLine
10
57.15
20
-48.0895599997
11
71.12
21
-48.0895599997
0
LINE
5
169
100
AcDbEntity
8
0
6
ByLayer
62
1
370
-1
100
AcDbLine
10
71.12
20
-48.0895599997
11
71.12
21
-47.1091199997
0
LINE
5
16A
100
AcDbEntity
8
0
6
ByLayer
62
1
370
-1
100
AcDbLine
10
71.12
20
-47.1091199997
11
71.9328
21
-47.1091199997
0
LINE
5
16B
100
AcDbEntity
8
0
6
ByLayer
62
1
370
-1
100
AcDbLine
10
71.9328
20
-47.1091199997
11
71.9328
21
-43.609
0
LINE
5
16C
100
AcDbEntity
8
0
6
ByLayer
62
1
370
-1
100
AcDbLine
10
71.9328
20
-43.609
11
71.12
21
-43.609
0
LINE
5
16D
100
AcDbEntity
8
0
6
ByLayer
62
1
370
-1
100
AcDbLine
10
71.12
20
-43.609
11
71.12
21
-38.60012
0
LINE
5
16E
100
AcDbEntity
8
0
6
ByLayer
62
1
370
-1
100
AcDbLine
10
71.12
20
-38.60012
11
71.9328
21
-38.60012
0
LINE
5
16F
100
AcDbEntity
8
0
6
ByLayer
62
1
370
-1
100
AcDbLine
10
71.9328
20
-38.60012
11
71.9328
21
-35.1
0
LINE
5
170
100
AcDbEntity
8
0
6
ByLayer
62
1
370
-1
100
AcDbLine
10
71.9328
20
-35.1
11
71.12
21
-35.1
0
LINE
5
171
100
AcDbEntity
8
0
6
ByLayer
62
1
370
-1
100
AcDbLine
10
71.12
20
-35.1
11
71.12
21
-34.11956
0
LINE
5
172
100
AcDbEntity
8
0
6
ByLayer
62
1
370
-1
100
AcDbLine
10
71.12
20
-53.1695599997
11
57.15
21
-53.1695599997
0
LINE
5
173
100
AcDbEntity
8
0
6
ByLayer
62
1
370
-1
100
AcDbLine
10
57.15
20
-53.1695599997
11
57.15
21
-54.1499999997
0
LINE
5
174
100
AcDbEntity
8
0
6
ByLayer
62
1
370
-1
100
AcDbLine
10
57.15
20
-54.1499999997
11
56.3372
21
-54.1499999997
0
LINE
5
175
100
AcDbEntity
8
0
6
ByLayer
62
1
370
-1
100
AcDbLine
10
56.3372
20
-54.1499999997
11
56.3372
21
-57.6501199997
0
LINE
5
176
100
AcDbEntity
8
0
6
ByLayer
62
1
370
-1
100
AcDbLine
10
56.3372
20
-57.6501199997
11
57.15
21
-57.6501199997
0
LINE
5
177
100
AcDbEntity
8
0
6
ByLayer
62
1
370
-1
100
AcDbLine
10
57.15
20
-57.6501199997
11
57.15
21
-62.6589999997
0
LINE
5
178
100
AcDbEntity
8
0
6
ByLayer
62
1
370
-1
100
AcDbLine
10
57.15
20
-62.6589999997
11
56.3372
21
-62.6589999997
0
LINE
5
179
100
AcDbEntity
8
0
6
ByLayer
62
1
370
-1
100
AcDbLine
10
56.3372
20
-62.6589999997
11
56.3372
21
-66.1591199997
0
LINE
5
17A
100
AcDbEntity
8
0
6
ByLayer
62
1
370
-1
100
AcDbLine
10
56.3372
20
-66.1591199997
11
57.15
21
-66.1591199997
0
LINE
5
17B
100
AcDbEntity
8
0
6
ByLayer
62
1
370
-1
100
AcDbLine
10
57.15
20
-66.1591199997
11
57.15
21
-67.1395599997
0
LINE
5
17C
100
AcDbEntity
8
0
6
ByLayer
62
1
370
-1
100
AcDbLine
10
57.15
20
-67.1395599997
11
71.12
21
-67.1395599997
0
LINE
5
17D
100
AcDbEntity
8
0
6
ByLayer
62
1
370
-1
100
AcDbLine
10
71.12
20
-67.1395599997
11
71.12
21
-66.1591199997
0
LINE
5
17E
100
AcDbEntity
8
0
6
ByLayer
62
1
370
-1
100
AcDbLine
10
71.12
20
-66.1591199997
11
71.9328
21
-66.1591199997
0
LINE
5
17F
100
AcDbEntity
8
0
6
ByLayer
62
1
370
-1
100
AcDbLine
10
71.9328
20
-66.1591199997
11
71.9328
21
-62.6589999997
0
LINE
5
180
100
AcDbEntity
8
0
6
ByLayer
62
1
370
-1
100
AcDbLine
10
71.9328
20
-62.6589999997
11
71.12
21
-62.6589999997
0
LINE
5
181
100
AcDbEntity
8
0
6
ByLayer
62
1
370
-1
100
AcDbLine
10
71.12
20
-62.6589999997
11
71.12
21
-57.6501199997
0
LINE
5
182
100
AcDbEntity
8
0
6
ByLayer
62
1
370
-1
100
AcDbLine
10
71.12
20
-57.6501199997
11
71.9328
21
-57.6501199997
0
LINE
5
183
100
AcDbEntity
8
0
6
ByLayer
62
1
370
-1
100
AcDbLine
10
71.9328
20
-57.6501199997
11
71.9328
21
-54.1499999997
0
LINE
5
184
100
AcDbEntity
8
0
6
ByLayer
62
1
370
-1
100
AcDbLine
10
71.9328
20
-54.1499999997
11
71.12
21
-54.1499999997
0
LINE
5
185
100
AcDbEntity
8
0
6
ByLayer
62
1
370
-1
100
AcDbLine
10
71.12
20
-54.1499999997
11
71.12
21
-53.1695599997
0
LINE
5
186
100
AcDbEntity
8
0
6
ByLayer
62
1
370
-1
100
AcDbLine
10
71.12
20
-72.2195599997
11
57.15
21
-72.2195599997
0
LINE
5
187
100
AcDbEntity
8
0
6
ByLayer
62
1
370
-1
100
AcDbLine
10
57.15
20
-72.2195599997
11
57.15
21
-73.1999999997
0
LINE
5
188
100
AcDbEntity
8
0
6
ByLayer
62
1
370
-1
100
AcDbLine
10
57.15
20
-73.1999999997
11
56.3372
21
-73.1999999997
0
LINE
5
189
100
AcDbEntity
8
0
6
ByLayer
62
1
370
-1
100
AcDbLine
10
56.3372
20
-73.1999999997
11
56.3372
21
-76.7001199997
0
LINE
5
18A
100
AcDbEntity
8
0
6
ByLayer
62
1
370
-1
100
AcDbLine
10
56.3372
20
-76.7001199997
11
57.15
21
-76.7001199997
0
LINE
5
18B
100
AcDbEntity
8
0
6
ByLayer
62
1
370
-1
100
AcDbLine
10
57.15
20
-76.7001199997
11
57.15
21
-81.7089999997
0
LINE
5
18C
100
AcDbEntity
8
0
6
ByLayer
62
1
370
-1
100
AcDbLine
10
57.15
20
-81.7089999997
11
56.3372
21
-81.7089999997
0
LINE
5
18D
100
AcDbEntity
8
0
6
ByLayer
62
1
370
-1
100
AcDbLine
10
56.3372
20
-81.7089999997
11
56.3372
21
-85.2091199997
0
LINE
5
18E
100
AcDbEntity
8
0
6
ByLayer
62
1
370
-1
100
AcDbLine
10
56.3372
20
-85.2091199997
11
57.15
21
-85.2091199997
0
LINE
5
18F
100
AcDbEntity
8
0
6
ByLayer
62
1
370
-1
100
AcDbLine
10
57.15
20
-85.2091199997
11
57.15
21
-86.1895599997
0
LINE
5
190
100
AcDbEntity
8
0
6
ByLayer
62
1
370
-1
100
AcDbLine
10
57.15
20
-86.1895599997
11
71.12
21
-86.1895599997
0
LINE
5
191
100
AcDbEntity
8
0
6
ByLayer
62
1
370
-1
100
AcDbLine
10
71.12
20
-86.1895599997
11
71.12
21
-85.2091199997
0
LINE
5
192
100
AcDbEntity
8
0
6
ByLayer
62
1
370
-1
100
AcDbLine
10
71.12
20
-85.2091199997
11
71.9328
21
-85.2091199997
0
LINE
5
193
100
AcDbEntity
8
0
6
ByLayer
62
1
370
-1
100
AcDbLine
10
71.9328
20
-85.2091199997
11
71.9328
21
-81.7089999997
0
LINE
5
194
100
AcDbEntity
8
0
6
ByLayer
62
1
370
-1
100
AcDbLine
10
71.9328
20
-81.7089999997
11
71.12
21
-81.7089999997
0
LINE
5
195
100
AcDbEntity
8
0
6
ByLayer
62
1
370
-1
100
AcDbLine
10
71.12
20
-81.7089999997
11
71.12
21
-76.7001199997
0
LINE
5
196
100
AcDbEntity
8
0
6
ByLayer
62
1
370
-1
100
AcDbLine
10
71.12
20
-76.7001199997
11
71.9328
21
-76.7001199997
0
LINE
5
197
100
AcDbEntity
8
0
6
ByLayer
62
1
370
-1
100
AcDbLine
10
71.9328
20
-76.7001199997
11
71.9328
21
-73.1999999997
0
LINE
5
198
100
AcDbEntity
8
0
6
ByLayer
62
1
370
-1
100
AcDbLine
10
71.9328
20
-73.1999999997
11
71.12
21
-73.1999999997
0
LINE
5
199
100
AcDbEntity
8
0
6
ByLayer
62
1
370
-1
100
AcDbLine
10
71.12
20
-73.1999999997
11
71.12
21
-72.2195599997
0
LINE
5
19A
100
AcDbEntity
8
0
6
ByLayer
62
1
370
-1
100
AcDbLine
10
90.1699999997
20
5.78044
11
76.2
21
5.78044
0
LINE
5
19B
100
AcDbEntity
8
0
6
ByLayer
62
1
370
-1
100
AcDbLine
10
76.2
20
5.78044
11
76.2
21
4.8
0
LINE
5
19C
100
AcDbEntity
8
0
6
ByLayer
62
1
370
-1
100
AcDbLine
10
76.2
20
4.8
11
75.3872
21
4.8
0
LINE
5
19D
100
AcDbEntity
8
0
6
ByLayer
62
1
370
-1
100
AcDbLine
10
75.3872
20
4.8
11
75.3872
21
1.29988
0
LINE
5
19E
100
AcDbEntity
8
0
6
ByLayer
62
1
370
-1
100
AcDbLine
10
75.3872
20
1.29988
11
76.2
21
1.29988
0
LINE
5
19F
100
AcDbEntity
8
0
6
ByLayer
62
1
370
-1
100
AcDbLine
10
76.2
20
1.29988
11
76.2
21
-3.709
0
LINE
5
1A0
100
AcDbEntity
8
0
6
ByLayer
62
1
370
-1
100
AcDbLine
10
76.2
20
-3.709
11
75.3872
21
-3.709
0
LINE
5
1A1
100
AcDbEntity
8
0
6
ByLayer
62
1
370
-1
100
AcDbLine
10
75.3872
20
-3.709
11
75.3872
21
-7.20912
0
LINE
5
1A2
100
AcDbEntity
8
0
6
ByLayer
62
1
370
-1
100
AcDbLine
10
75.3872
20
-7.20912
11
76.2
21
-7.20912
0
LINE
5
1A3
100
AcDbEntity
8
0
6
ByLayer
62
1
370
-1
100
AcDbLine
10
76.2
20
-7.20912
11
76.2
21
-8.18956
0
LINE
5
1A4
100
AcDbEntity
8
0
6
ByLayer
62
1
370
-1
100
AcDbLine
10
76.2
20
-8.18956
11
90.1699999997
21
-8.18956
0
LINE
5
1A5
100
AcDbEntity
8
0
6
ByLayer
62
1
370
-1
100
AcDbLine
10
90.1699999997
20
-8.18956
11
90.1699999997
21
-7.20912
0
LINE
5
1A6
100
AcDbEntity
8
0
6
ByLayer
62
1
370
-1
100
AcDbLine
10
90.1699999997
20
-7.20912
11
90.9827999997
21
-7.20912
0
LINE
5
1A7
100
AcDbEntity
8
0
6
ByLayer
62
1
370
-1
100
AcDbLine
10
90.9827999997
20
-7.20912
11
90.9827999997
21
-3.709
0
LINE
5
1A8
100
AcDbEntity
8
0
6
ByLayer
62
1
370
-1
100
AcDbLine
10
90.9827999997
20
-3.709
11
90.1699999997
21
-3.709
0
LINE
5
1A9
100
AcDbEntity
8
0
6
ByLayer
62
1
370
-1
100
AcDbLine
10
90.1699999997
20
-3.709
11
90.1699999997
21
1.29988
0
LINE
5
1AA
100
AcDbEntity
8
0
6
ByLayer
62
1
370
-1
100
AcDbLine
10
90.1699999997
20
1.29988
11
90.9827999997
21
1.29988
0
LINE
5
1AB
100
AcDbEntity
8
0
6
ByLayer
62
1
370
-1
100
AcDbLine
10
90.9827999997
20
1.29988
11
90.9827999997
21
4.8
0
LINE
5
1AC
100
AcDbEntity
8
0
6
ByLayer
62
1
370
-1
100
AcDbLine
10
90.9827999997
20
4.8
11
90.1699999997
21
4.8
0
LINE
5
1AD
100
AcDbEntity
8
0
6
ByLayer
62
1
370
-1
100
AcDbLine
10
90.1699999997
20
4.8
11
90.1699999997
21
5.78044
0
LINE
5
1AE
100
AcDbEntity
8
0
6
ByLayer
62
1
370
-1
100
AcDbLine
10
90.1699999997
20
-13.26956
11
76.2
21
-13.26956
0
LINE
5
1AF
100
AcDbEntity
8
0
6
ByLayer
62
1
370
-1
100
AcDbLine
10
76.2
20
-13.26956
11
76.2
21
-14.25
0
LINE
5
1B0
100
AcDbEntity
8
0
6
ByLayer
62
1
370
-1
100
AcDbLine
10
76.2
20
-14.25
11
75.3872
21
-14.25
0
LINE
5
1B1
100
AcDbEntity
8
0
6
ByLayer
62
1
370
-1
100
AcDbLine
10
75.3872
20
-14.25
11
75.3872
21
-17.75012
0
LINE
5
1B2
100
AcDbEntity
8
0
6
ByLayer
62
1
370
-1
100
AcDbLine
10
75.3872
20
-17.75012
11
76.2
21
-17.75012
0
LINE
5
1B3
100
AcDbEntity
8
0
6
ByLayer
62
1
370
-1
100
AcDbLine
10
76.2
20
-17.75012
11
76.2
21
-22.759
0
LINE
5
1B4
100
AcDbEntity
8
0
6
ByLayer
62
1
370
-1
100
AcDbLine
10
76.2
20
-22.759
11
75.3872
21
-22.759
0
LINE
5
1B5
100
AcDbEntity
8
0
6
ByLayer
62
1
370
-1
100
AcDbLine
10
75.3872
20
-22.759
11
75.3872
21
-26.25912
0
LINE
5
1B6
100
AcDbEntity
8
0
6
ByLayer
62
1
370
-1
100
AcDbLine
10
75.3872
20
-26.25912
11
76.2
21
-26.25912
0
LINE
5
1B7
100
AcDbEntity
8
0
6
ByLayer
62
1
370
-1
100
AcDbLine
10
76.2
20
-26.25912
11
76.2
21
-27.23956
0
LINE
5
1B8
100
AcDbEntity
8
0
6
ByLayer
62
1
370
-1
100
AcDbLine
10
76.2
20
-27.23956
11
90.1699999997
21
-27.23956
0
LINE
5
1B9
100
AcDbEntity
8
0
6
ByLayer
62
1
370
-1
100
AcDbLine
10
90.1699999997
20
-27.23956
11
90.1699999997
21
-26.25912
0
LINE
5
1BA
100
AcDbEntity
8
0
6
ByLayer
62
1
370
-1
100
AcDbLine
10
90.1699999997
20
-26.25912
11
90.9827999997
21
-26.25912
0
LINE
5
1BB
100
AcDbEntity
8
0
6
ByLayer
62
1
370
-1
100
AcDbLine
10
90.9827999997
20
-26.25912
11
90.9827999997
21
-22.759
0
LINE
5
1BC
100
AcDbEntity
8
0
6
ByLayer
62
1
370
-1
100
AcDbLine
10
90.9827999997
20
-22.759
11
90.1699999997
21
-22.759
0
LINE
5
1BD
100
AcDbEntity
8
0
6
ByLayer
62
1
370
-1
100
AcDbLine
10
90.1699999997
20
-22.759
11
90.1699999997
21
-17.75012
0
LINE
5
1BE
100
AcDbEntity
8
0
6
ByLayer
62
1
370
-1
100
AcDbLine
10
90.1699999997
20
-17.75012
11
90.9827999997
21
-17.75012
0
LINE
5
1BF
100
AcDbEntity
8
0
6
ByLayer
62
1
370
-1
100
AcDbLine
10
90.9827999997
20
-17.75012
11
90.9827999997
21
-14.25
0
LINE
5
1C0
100
AcDbEntity
8
0
6
ByLayer
62
1
370
-1
100
AcDbLine
10
90.9827999997
20
-14.25
11
90.1699999997
21
-14.25
0
LINE
5
1C1
100
AcDbEntity
8
0
6
ByLayer
62
1
370
-1
100
AcDbLine
10
90.1699999997
20
-14.25
11
90.1699999997
21
-13.26956
0
LINE
5
1C2
100
AcDbEntity
8
0
6
ByLayer
62
1
370
-1
100
AcDbLine
10
90.1699999997
20
-32.31956
11
76.2
21
-32.31956
0
LINE
5
1C3
100
AcDbEntity
8
0
6
ByLayer
62
1
370
-1
100
AcDbLine
10
76.2
20
-32.31956
11
76.2
21
-33.3
0
LINE
5
1C4
100
AcDbEntity
8
0
6
ByLayer
62
1
370
-1
100
AcDbLine
10
76.2
20
-33.3
11
75.3872
21
-33.3
0
LINE
5
1C5
100
AcDbEntity
8
0
6
ByLayer
62
1
370
-1
100
AcDbLine
10
75.3872
20
-33.3
11
75.3872
21
-36.80012
0
LINE
5
1C6
100
AcDbEntity
8
0
6
ByLayer
62
1
370
-1
100
AcDbLine
10
75.3872
20
-36.80012
11
76.2
21
-36.80012
0
LINE
5
1C7
100
AcDbEntity
8
0
6
ByLayer
62
1
370
-1
100
AcDbLine
10
76.2
20
-36.80012
11
76.2
21
-41.809
0
LINE
5
1C8
100
AcDbEntity
8
0
6
ByLayer
62
1
370
-1
100
AcDbLine
10
76.2
20
-41.809
11
75.3872
21
-41.809
0
LINE
5
1C9
100
AcDbEntity
8
0
6
ByLayer
62
1
370
-1
100
AcDbLine
10
75.3872
20
-41.809
11
75.3872
21
-45.30912
0
LINE
5
1CA
100
AcDbEntity
8
0
6
ByLayer
62
1
370
-1
100
AcDbLine
10
75.3872
20
-45.30912
11
76.2
21
-45.30912
0
LINE
5
1CB
100
AcDbEntity
8
0
6
ByLayer
62
1
370
-1
100
AcDbLine
10
76.2
20
-45.30912
11
76.2
21
-46.2895599997
0
LINE
5
1CC
100
AcDbEntity
8
0
6
ByLayer
62
1
370
-1
100
AcDbLine
10
76.2
20
-46.2895599997
11
90.1699999997
21
-46.2895599997
0
LINE
5
1CD
100
AcDbEntity
8
0
6
ByLayer
62
1
370
-1
100
AcDbLine
10
90.1699999997
20
-46.2895599997
11
90.1699999997
21
-45.30912
0
LINE
5
1CE
100
AcDbEntity
8
0
6
ByLayer
62
1
370
-1
100
AcDbLine
10
90.1699999997
20
-45.30912
11
90.9827999997
21
-45.30912
0
LINE
5
1CF
100
AcDbEntity
8
0
6
ByLayer
62
1
370
-1
100
AcDbLine
10
90.9827999997
20
-45.30912
11
90.9827999997
21
-41.809
0
LINE
5
1D0
100
AcDbEntity
8
0
6
ByLayer
62
1
370
-1
100
AcDbLine
10
90.9827999997
20
-41.809
11
90.1699999997
21
-41.809
0
LINE
5
1D1
100
AcDbEntity
8
0
6
ByLayer
62
1
370
-1
100
AcDbLine
10
90.1699999997
20
-41.809
11
90.1699999997
21
-36.80012
0
LINE
5
1D2
100
AcDbEntity
8
0
6
ByLayer
62
1
370
-1
100
AcDbLine
10
90.1699999997
20
-36.80012
11
90.9827999997
21
-36.80012
0
LINE
5
1D3
100
AcDbEntity
8
0
6
ByLayer
62
1
370
-1
100
AcDbLine
10
90.9827999997
20
-36.80012
11
90.9827999997
21
-33.3
0
LINE
5
1D4
100
AcDbEntity
8
0
6
ByLayer
62
1
370
-1
100
AcDbLine
10
90.9827999997
20
-33.3
11
90.1699999997
21
-33.3
0
LINE
5
1D5
100
AcDbEntity
8
0
6
ByLayer
62
1
370
-1
100
AcDbLine
10
90.1699999997
20
-33.3
11
90.1699999997
21
-32.31956
0
LINE
5
1D6
100
AcDbEntity
8
0
6
ByLayer
62
1
370
-1
100
AcDbLine
10
90.1699999997
20
-51.3695599997
11
76.2
21
-51.3695599997
0
LINE
5
1D7
100
AcDbEntity
8
0
6
ByLayer
62
1
370
-1
100
AcDbLine
10
76.2
20
-51.3695599997
11
76.2
21
-52.3499999997
0
LINE
5
1D8
100
AcDbEntity
8
0
6
ByLayer
62
1
370
-1
100
AcDbLine
10
76.2
20
-52.3499999997
11
75.3872
21
-52.3499999997
0
LINE
5
1D9
100
AcDbEntity
8
0
6
ByLayer
62
1
370
-1
100
AcDbLine
10
75.3872
20
-52.3499999997
11
75.3872
21
-55.8501199997
0
LINE
5
1DA
100
AcDbEntity
8
0
6
ByLayer
62
1
370
-1
100
AcDbLine
10
75.3872
20
-55.8501199997
11
76.2
21
-55.8501199997
0
LINE
5
1DB
100
AcDbEntity
8
0
6
ByLayer
62
1
370
-1
100
AcDbLine
10
76.2
20
-55.8501199997
11
76.2
21
-60.8589999997
0
LINE
5
1DC
100
AcDbEntity
8
0
6
ByLayer
62
1
370
-1
100
AcDbLine
10
76.2
20
-60.8589999997
11
75.3872
21
-60.8589999997
0
LINE
5
1DD
100
AcDbEntity
8
0
6
ByLayer
62
1
370
-1
100
AcDbLine
10
75.3872
20
-60.8589999997
11
75.3872
21
-64.3591199997
0
LINE
5
1DE
100
AcDbEntity
8
0
6
ByLayer
62
1
370
-1
100
AcDbLine
10
75.3872
20
-64.3591199997
11
76.2
21
-64.3591199997
0
LINE
5
1DF
100
AcDbEntity
8
0
6
ByLayer
62
1
370
-1
100
AcDbLine
10
76.2
20
-64.3591199997
11
76.2
21
-65.3395599997
0
LINE
5
1E0
100
AcDbEntity
8
0
6
ByLayer
62
1
370
-1
100
AcDbLine
10
76.2
20
-65.3395599997
11
90.1699999997
21
-65.3395599997
0
LINE
5
1E1
100
AcDbEntity
8
0
6
ByLayer
62
1
370
-1
100
AcDbLine
10
90.1699999997
20
-65.3395599997
11
90.1699999997
21
-64.3591199997
0
LINE
5
1E2
100
AcDbEntity
8
0
6
ByLayer
62
1
370
-1
100
AcDbLine
10
90.1699999997
20
-64.3591199997
11
90.9827999997
21
-64.3591199997
0
LINE
5
1E3
100
AcDbEntity
8
0
6
ByLayer
62
1
370
-1
100
AcDbLine
10
90.9827999997
20
-64.3591199997
11
90.9827999997
21
-60.8589999997
0
LINE
5
1E4
100
AcDbEntity
8
0
6
ByLayer
62
1
370
-1
100
AcDbLine
10
90.9827999997
20
-60.8589999997
11
90.1699999997
21
-60.8589999997
0
LINE
5
1E5
100
AcDbEntity
8
0
6
ByLayer
62
1
370
-1
100
AcDbLine
10
90.1699999997
20
-60.8589999997
11
90.1699999997
21
-55.8501199997
0
LINE
5
1E6
100
AcDbEntity
8
0
6
ByLayer
62
1
370
-1
100
AcDbLine
10
90.1699999997
20
-55.8501199997
11
90.9827999997
21
-55.8501199997
0
LINE
5
1E7
100
AcDbEntity
8
0
6
ByLayer
62
1
370
-1
100
AcDbLine
10
90.9827999997
20
-55.8501199997
11
90.9827999997
21
-52.3499999997
0
LINE
5
1E8
100
AcDbEntity
8
0
6
ByLayer
62
1
370
-1
100
AcDbLine
10
90.9827999997
20
-52.3499999997
11
90.1699999997
21
-52.3499999997
0
LINE
5
1E9
100
AcDbEntity
8
0
6
ByLayer
62
1
370
-1
100
AcDbLine
10
90.1699999997
20
-52.3499999997
11
90.1699999997
21
-51.3695599997
0
LINE
5
1EA
100
AcDbEntity
8
0
6
ByLayer
62
1
370
-1
100
AcDbLine
10
90.1699999997
20
-70.4195599997
11
76.2
21
-70.4195599997
0
LINE
5
1EB
100
AcDbEntity
8
0
6
ByLayer
62
1
370
-1
100
AcDbLine
10
76.2
20
-70.4195599997
11
76.2
21
-71.3999999997
0
LINE
5
1EC
100
AcDbEntity
8
0
6
ByLayer
62
1
370
-1
100
AcDbLine
10
76.2
20
-71.3999999997
11
75.3872
21
-71.3999999997
0
LINE
5
1ED
100
AcDbEntity
8
0
6
ByLayer
62
1
370
-1
100
AcDbLine
10
75.3872
20
-71.3999999997
11
75.3872
21
-74.9001199997
0
LINE
5
1EE
100
AcDbEntity
8
0
6
ByLayer
62
1
370
-1
100
AcDbLine
10
75.3872
20
-74.9001199997
11
76.2
21
-74.9001199997
0
LINE
5
1EF
100
AcDbEntity
8
0
6
ByLayer
62
1
370
-1
100
AcDbLine
10
76.2
20
-74.9001199997
11
76.2
21
-79.9089999997
0
LINE
5
1F0
100
AcDbEntity
8
0
6
ByLayer
62
1
370
-1
100
AcDbLine
10
76.2
20
-79.9089999997
11
75.3872
21
-79.9089999997
0
LINE
5
1F1
100
AcDbEntity
8
0
6
ByLayer
62
1
370
-1
100
AcDbLine
10
75.3872
20
-79.9089999997
11
75.3872
21
-83.4091199997
0
LINE
5
1F2
100
AcDbEntity
8
0
6
ByLayer
62
1
370
-1
100
AcDbLine
10
75.3872
20
-83.4091199997
11
76.2
21
-83.4091199997
0
LINE
5
1F3
100
AcDbEntity
8
0
6
ByLayer
62
1
370
-1
100
AcDbLine
10
76.2
20
-83.4091199997
11
76.2
21
-84.3895599997
0
LINE
5
1F4
100
AcDbEntity
8
0
6
ByLayer
62
1
370
-1
100
AcDbLine
10
76.2
20
-84.3895599997
11
90.1699999997
21
-84.3895599997
0
LINE
5
1F5
100
AcDbEntity
8
0
6
ByLayer
62
1
370
-1
100
AcDbLine
10
90.1699999997
20
-84.3895599997
11
90.1699999997
21
-83.4091199997
0
LINE
5
1F6
100
AcDbEntity
8
0
6
ByLayer
62
1
370
-1
100
AcDbLine
10
90.1699999997
20
-83.4091199997
11
90.9827999997
21
-83.4091199997
0
LINE
5
1F7
100
AcDbEntity
8
0
6
ByLayer
62
1
370
-1
100
AcDbLine
10
90.9827999997
20
-83.4091199997
11
90.9827999997
21
-79.9089999997
0
LINE
5
1F8
100
AcDbEntity
8
0
6
ByLayer
62
1
370
-1
100
AcDbLine
10
90.9827999997
20
-79.9089999997
11
90.1699999997
21
-79.9089999997
0
LINE
5
1F9
100
AcDbEntity
8
0
6
ByLayer
62
1
370
-1
100
AcDbLine
10
90.1699999997
20
-79.9089999997
11
90.1699999997
21
-74.9001199997
0
LINE
5
1FA
100
AcDbEntity
8
0
6
ByLayer
62
1
370
-1
100
AcDbLine
10
90.1699999997
20
-74.9001199997
11
90.9827999997
21
-74.9001199997
0
LINE
5
1FB
100
AcDbEntity
8
0
6
ByLayer
62
1
370
-1
100
AcDbLine
10
90.9827999997
20
-74.9001199997
11
90.9827999997
21
-71.3999999997
0
LINE
5
1FC
100
AcDbEntity
8
0
6
ByLayer
62
1
370
-1
100
AcDbLine
10
90.9827999997
20
-71.3999999997
11
90.1699999997
21
-71.3999999997
0
LINE
5
1FD
100
AcDbEntity
8
0
6
ByLayer
62
1
370
-1
100
AcDbLine
10
90.1699999997
20
-71.3999999997
11
90.1699999997
21
-70.4195599997
0
LINE
5
1FE
100
AcDbEntity
8
0
6
ByLayer
62
1
370
-1
100
AcDbLine
10
128.27
20
2.98044
11
114.3
21
2.98044
0
LINE
5
1FF
100
AcDbEntity
8
0
6
ByLayer
62
1
370
-1
100
AcDbLine
10
114.3
20
2.98044
11
114.3
21
2
0
LINE
5
200
100
AcDbEntity
8
0
6
ByLayer
62
1
370
-1
100
AcDbLine
10
114.3
20
2
11
113.4872
21
2
0
LINE
5
201
100
AcDbEntity
8
0
6
ByLayer
62
1
370
-1
100
AcDbLine
10
113.4872
20
2
11
113.4872
21
-1.50012
0
LINE
5
202
100
AcDbEntity
8
0
6
ByLayer
62
1
370
-1
100
AcDbLine
10
113.4872
20
-1.50012
11
114.3
21
-1.50012
0
LINE
5
203
100
AcDbEntity
8
0
6
ByLayer
62
1
370
-1
100
AcDbLine
10
114.3
20
-1.50012
11
114.3
21
-6.509
0
LINE
5
204
100
AcDbEntity
8
0
6
ByLayer
62
1
370
-1
100
AcDbLine
10
114.3
20
-6.509
11
113.4872
21
-6.509
0
LINE
5
205
100
AcDbEntity
8
0
6
ByLayer
62
1
370
-1
100
AcDbLine
10
113.4872
20
-6.509
11
113.4872
21
-10.00912
0
LINE
5
206
100
AcDbEntity
8
0
6
ByLayer
62
1
370
-1
100
AcDbLine
10
113.4872
20
-10.00912
11
114.3
21
-10.00912
0
LINE
5
207
100
AcDbEntity
8
0
6
ByLayer
62
1
370
-1
100
AcDbLine
10
114.3
20
-10.00912
11
114.3
21
-10.98956
0
LINE
5
208
100
AcDbEntity
8
0
6
ByLayer
62
1
370
-1
100
AcDbLine
10
114.3
20
-10.98956
11
128.27
21
-10.98956
0
LINE
5
209
100
AcDbEntity
8
0
6
ByLayer
62
1
370
-1
100
AcDbLine
10
128.27
20
-10.98956
11
128.27
21
-10.00912
0
LINE
5
20A
100
AcDbEntity
8
0
6
ByLayer
62
1
370
-1
100
AcDbLine
10
128.27
20
-10.00912
11
129.0828
21
-10.00912
0
LINE
5
20B
100
AcDbEntity
8
0
6
ByLayer
62
1
370
-1
100
AcDbLine
10
129.0828
20
-10.00912
11
129.0828
21
-6.509
0
LINE
5
20C
100
AcDbEntity
8
0
6
ByLayer
62
1
370
-1
100
AcDbLine
10
129.0828
20
-6.509
11
128.27
21
-6.509
0
LINE
5
20D
100
AcDbEntity
8
0
6
ByLayer
62
1
370
-1
100
AcDbLine
10
128.27
20
-6.509
11
128.27
21
-1.50012
0
LINE
5
20E
100
AcDbEntity
8
0
6
ByLayer
62
1
370
-1
100
AcDbLine
10
128.27
20
-1.50012
11
129.0828
21
-1.50012
0
LINE
5
20F
100
AcDbEntity
8
0
6
ByLayer
62
1
370
-1
100
AcDbLine
10
129.0828
20
-1.50012
11
129.0828
21
2
0
LINE
5
210
100
AcDbEntity
8
0
6
ByLayer
62
1
370
-1
100
AcDbLine
10
129.0828
20
2
11
128.27
21
2
0
LINE
5
211
100
AcDbEntity
8
0
6
ByLayer
62
1
370
-1
100
AcDbLine
10
128.27
20
2
11
128.27
21
2.98044
0
LINE
5
212
100
AcDbEntity
8
0
6
ByLayer
62
1
370
-1
100
AcDbLine
10
128.27
20
-16.06956
11
114.3
21
-16.06956
0
LINE
5
213
100
AcDbEntity
8
0
6
ByLayer
62
1
370
-1
100
AcDbLine
10
114.3
20
-16.06956
11
114.3
21
-17.05
0
LINE
5
214
100
AcDbEntity
8
0
6
ByLayer
62
1
370
-1
100
AcDbLine
10
114.3
20
-17.05
11
113.4872
21
-17.05
0
LINE
5
215
100
AcDbEntity
8
0
6
ByLayer
62
1
370
-1
100
AcDbLine
10
113.4872
20
-17.05
11
113.4872
21
-20.55012
0
LINE
5
216
100
AcDbEntity
8
0
6
ByLayer
62
1
370
-1
100
AcDbLine
10
113.4872
20
-20.55012
11
114.3
21
-20.55012
0
LINE
5
217
100
AcDbEntity
8
0
6
ByLayer
62
1
370
-1
100
AcDbLine
10
114.3
20
-20.55012
11
114.3
21
-25.559
0
LINE
5
218
100
AcDbEntity
8
0
6
ByLayer
62
1
370
-1
100
AcDbLine
10
114.3
20
-25.559
11
113.4872
21
-25.559
0
LINE
5
219
100
AcDbEntity
8
0
6
ByLayer
62
1
370
-1
100
AcDbLine
10
113.4872
20
-25.559
11
113.4872
21
-29.05912
0
LINE
5
21A
100
AcDbEntity
8
0
6
ByLayer
62
1
370
-1
100
AcDbLine
10
113.4872
20
-29.05912
11
114.3
21
-29.05912
0
LINE
5
21B
100
AcDbEntity
8
0
6
ByLayer
62
1
370
-1
100
AcDbLine
10
114.3
20
-29.05912
11
114.3
21
-30.03956
0
LINE
5
21C
100
AcDbEntity
8
0
6
ByLayer
62
1
370
-1
100
AcDbLine
10
114.3
20
-30.03956
11
128.27
21
-30.03956
0
LINE
5
21D
100
AcDbEntity
8
0
6
ByLayer
62
1
370
-1
100
AcDbLine
10
128.27
20
-30.03956
11
128.27
21
-29.05912
0
LINE
5
21E
100
AcDbEntity
8
0
6
ByLayer
62
1
370
-1
100
AcDbLine
10
128.27
20
-29.05912
11
129.0828
21
-29.05912
0
LINE
5
21F
100
AcDbEntity
8
0
6
ByLayer
62
1
370
-1
100
AcDbLine
10
129.0828
20
-29.05912
11
129.0828
21
-25.559
0
LINE
5
220
100
AcDbEntity
8
0
6
ByLayer
62
1
370
-1
100
AcDbLine
10
129.0828
20
-25.559
11
128.27
21
-25.559
0
LINE
5
221
100
AcDbEntity
8
0
6
ByLayer
62
1
370
-1
100
AcDbLine
10
128.27
20
-25.559
11
128.27
21
-20.55012
0
LINE
5
222
100
AcDbEntity
8
0
6
ByLayer
62
1
370
-1
100
AcDbLine
10
128.27
20
-20.55012
11
129.0828
21
-20.55012
0
LINE
5
223
100
AcDbEntity
8
0
6
ByLayer
62
1
370
-1
100
AcDbLine
10
129.0828
20
-20.55012
11
129.0828
21
-17.05
0
LINE
5
224
100
AcDbEntity
8
0
6
ByLayer
62
1
370
-1
100
AcDbLine
10
129.0828
20
-17.05
11
128.27
21
-17.05
0
LINE
5
225
100
AcDbEntity
8
0
6
ByLayer
62
1
370
-1
100
AcDbLine
10
128.27
20
-17.05
11
128.27
21
-16.06956
0
LINE
5
226
100
AcDbEntity
8
0
6
ByLayer
62
1
370
-1
100
AcDbLine
10
128.27
20
-35.11956
11
114.3
21
-35.11956
0
LINE
5
227
100
AcDbEntity
8
0
6
ByLayer
62
1
370
-1
100
AcDbLine
10
114.3
20
-35.11956
11
114.3
21
-36.1
0
LINE
5
228
100
AcDbEntity
8
0
6
ByLayer
62
1
370
-1
100
AcDbLine
10
114.3
20
-36.1
11
113.4872
21
-36.1
0
LINE
5
229
100
AcDbEntity
8
0
6
ByLayer
62
1
370
-1
100
AcDbLine
10
113.4872
20
-36.1
11
113.4872
21
-39.60012
0
LINE
5
22A
100
AcDbEntity
8
0
6
ByLayer
62
1
370
-1
100
AcDbLine
10
113.4872
20
-39.60012
11
114.3
21
-39.60012
0
LINE
5
22B
100
AcDbEntity
8
0
6
ByLayer
62
1
370
-1
100
AcDbLine
10
114.3
20
-39.60012
11
114.3
21
-44.609
0
LINE
5
22C
100
AcDbEntity
8
0
6
ByLayer
62
1
370
-1
100
AcDbLine
10
114.3
20
-44.609
11
113.4872
21
-44.609
0
LINE
5
22D
100
AcDbEntity
8
0
6
ByLayer
62
1
370
-1
100
AcDbLine
10
113.4872
20
-44.609
11
113.4872
21
-48.1091199997
0
LINE
5
22E
100
AcDbEntity
8
0
6
ByLayer
62
1
370
-1
100
AcDbLine
10
113.4872
20
-48.1091199997
11
114.3
21
-48.1091199997
0
LINE
5
22F
100
AcDbEntity
8
0
6
ByLayer
62
1
370
-1
100
AcDbLine
10
114.3
20
-48.1091199997
11
114.3
21
-49.0895599997
0
LINE
5
230
100
AcDbEntity
8
0
6
ByLayer
62
1
370
-1
100
AcDbLine
10
114.3
20
-49.0895599997
11
128.27
21
-49.0895599997
0
LINE
5
231
100
AcDbEntity
8
0
6
ByLayer
62
1
370
-1
100
AcDbLine
10
128.27
20
-49.0895599997
11
128.27
21
-48.1091199997
0
LINE
5
232
100
AcDbEntity
8
0
6
ByLayer
62
1
370
-1
100
AcDbLine
10
128.27
20
-48.1091199997
11
129.0828
21
-48.1091199997
0
LINE
5
233
100
AcDbEntity
8
0
6
ByLayer
62
1
370
-1
100
AcDbLine
10
129.0828
20
-48.1091199997
11
129.0828
21
-44.609
0
LINE
5
234
100
AcDbEntity
8
0
6
ByLayer
62
1
370
-1
100
AcDbLine
10
129.0828
20
-44.609
11
128.27
21
-44.609
0
LINE
5
235
100
AcDbEntity
8
0
6
ByLayer
62
1
370
-1
100
AcDbLine
10
128.27
20
-44.609
11
128.27
21
-39.60012
0
LINE
5
236
100
AcDbEntity
8
0
6
ByLayer
62
1
370
-1
100
AcDbLine
10
128.27
20
-39.60012
11
129.0828
21
-39.60012
0
LINE
5
237
100
AcDbEntity
8
0
6
ByLayer
62
1
370
-1
100
AcDbLine
10
129.0828
20
-39.60012
11
129.0828
21
-36.1
0
LINE
5
238
100
AcDbEntity
8
0
6
ByLayer
62
1
370
-1
100
AcDbLine
10
129.0828
20
-36.1
11
128.27
21
-36.1
0
LINE
5
239
100
AcDbEntity
8
0
6
ByLayer
62
1
370
-1
100
AcDbLine
10
128.27
20
-36.1
11
128.27
21
-35.11956
0
LINE
5
23A
100
AcDbEntity
8
0
6
ByLayer
62
1
370
-1
100
AcDbLine
10
128.27
20
-54.1695599997
11
114.3
21
-54.1695599997
0
LINE
5
23B
100
AcDbEntity
8
0
6
ByLayer
62
1
370
-1
100
AcDbLine
10
114.3
20
-54.1695599997
11
114.3
21
-55.1499999997
0
LINE
5
23C
100
AcDbEntity
8
0
6
ByLayer
62
1
370
-1
100
AcDbLine
10
114.3
20
-55.1499999997
11
113.4872
21
-55.1499999997
0
LINE
5
23D
100
AcDbEntity
8
0
6
ByLayer
62
1
370
-1
100
AcDbLine
10
113.4872
20
-55.1499999997
11
113.4872
21
-58.6501199997
0
LINE
5
23E
100
AcDbEntity
8
0
6
ByLayer
62
1
370
-1
100
AcDbLine
10
113.4872
20
-58.6501199997
11
114.3
21
-58.6501199997
0
LINE
5
23F
100
AcDbEntity
8
0
6
ByLayer
62
1
370
-1
100
AcDbLine
10
114.3
20
-58.6501199997
11
114.3
21
-63.6589999997
0
LINE
5
240
100
AcDbEntity
8
0
6
ByLayer
62
1
370
-1
100
AcDbLine
10
114.3
20
-63.6589999997
11
113.4872
21
-63.6589999997
0
LINE
5
241
100
AcDbEntity
8
0
6
ByLayer
62
1
370
-1
100
AcDbLine
10
113.4872
20
-63.6589999997
11
113.4872
21
-67.1591199997
0
LINE
5
242
100
AcDbEntity
8
0
6
ByLayer
62
1
370
-1
100
AcDbLine
10
113.4872
20
-67.1591199997
11
114.3
21
-67.1591199997
0
LINE
5
243
100
AcDbEntity
8
0
6
ByLayer
62
1
370
-1
100
AcDbLine
10
114.3
20
-67.1591199997
11
114.3
21
-68.1395599997
0
LINE
5
244
100
AcDbEntity
8
0
6
ByLayer
62
1
370
-1
100
AcDbLine
10
114.3
20
-68.1395599997
11
128.27
21
-68.1395599997
0
LINE
5
245
100
AcDbEntity
8
0
6
ByLayer
62
1
370
-1
100
AcDbLine
10
128.27
20
-68.1395599997
11
128.27
21
-67.1591199997
0
LINE
5
246
100
AcDbEntity
8
0
6
ByLayer
62
1
370
-1
100
AcDbLine
10
128.27
20
-67.1591199997
11
129.0828
21
-67.1591199997
0
LINE
5
247
100
AcDbEntity
8
0
6
ByLayer
62
1
370
-1
100
AcDbLine
10
129.0828
20
-67.1591199997
11
129.0828
21
-63.6589999997
0
LINE
5
248
100
AcDbEntity
8
0
6
ByLayer
62
1
370
-1
100
AcDbLine
10
129.0828
20
-63.6589999997
11
128.27
21
-63.6589999997
0
LINE
5
249
100
AcDbEntity
8
0
6
ByLayer
62
1
370
-1
100
AcDbLine
10
128.27
20
-63.6589999997
11
128.27
21
-58.6501199997
0
LINE
5
24A
100
AcDbEntity
8
0
6
ByLayer
62
1
370
-1
100
AcDbLine
10
128.27
20
-58.6501199997
11
129.0828
21
-58.6501199997
0
LINE
5
24B
100
AcDbEntity
8
0
6
ByLayer
62
1
370
-1
100
AcDbLine
10
129.0828
20
-58.6501199997
11
129.0828
21
-55.1499999997
0
LINE
5
24C
100
AcDbEntity
8
0
6
ByLayer
62
1
370
-1
100
AcDbLine
10
129.0828
20
-55.1499999997
11
128.27
21
-55.1499999997
0
LINE
5
24D
100
AcDbEntity
8
0
6
ByLayer
62
1
370
-1
100
AcDbLine
10
128.27
20
-55.1499999997
11
128.27
21
-54.1695599997
0
LINE
5
24E
100
AcDbEntity
8
0
6
ByLayer
62
1
370
-1
100
AcDbLine
10
147.32
20
2.98044
11
133.35
21
2.98044
0
LINE
5
24F
100
AcDbEntity
8
0
6
ByLayer
62
1
370
-1
100
AcDbLine
10
133.35
20
2.98044
11
133.35
21
2
0
LINE
5
250
100
AcDbEntity
8
0
6
ByLayer
62
1
370
-1
100
AcDbLine
10
133.35
20
2
11
132.5372
21
2
0
LINE
5
251
100
AcDbEntity
8
0
6
ByLayer
62
1
370
-1
100
AcDbLine
10
132.5372
20
2
11
132.5372
21
-1.50012
0
LINE
5
252
100
AcDbEntity
8
0
6
ByLayer
62
1
370
-1
100
AcDbLine
10
132.5372
20
-1.50012
11
133.35
21
-1.50012
0
LINE
5
253
100
AcDbEntity
8
0
6
ByLayer
62
1
370
-1
100
AcDbLine
10
133.35
20
-1.50012
11
133.35
21
-6.509
0
LINE
5
254
100
AcDbEntity
8
0
6
ByLayer
62
1
370
-1
100
AcDbLine
10
133.35
20
-6.509
11
132.5372
21
-6.509
0
LINE
5
255
100
AcDbEntity
8
0
6
ByLayer
62
1
370
-1
100
AcDbLine
10
132.5372
20
-6.509
11
132.5372
21
-10.00912
0
LINE
5
256
100
AcDbEntity
8
0
6
ByLayer
62
1
370
-1
100
AcDbLine
10
132.5372
20
-10.00912
11
133.35
21
-10.00912
0
LINE
5
257
100
AcDbEntity
8
0
6
ByLayer
62
1
370
-1
100
AcDbLine
10
133.35
20
-10.00912
11
133.35
21
-10.98956
0
LINE
5
258
100
AcDbEntity
8
0
6
ByLayer
62
1
370
-1
100
AcDbLine
10
133.35
20
-10.98956
11
147.32
21
-10.98956
0
LINE
5
259
100
AcDbEntity
8
0
6
ByLayer
62
1
370
-1
100
AcDbLine
10
147.32
20
-10.98956
11
147.32
21
-10.00912
0
LINE
5
25A
100
AcDbEntity
8
0
6
ByLayer
62
1
370
-1
100
AcDbLine
10
147.32
20
-10.00912
11
148.1328
21
-10.00912
0
LINE
5
25B
100
AcDbEntity
8
0
6
ByLayer
62
1
370
-1
100
AcDbLine
10
148.1328
20
-10.00912
11
148.1328
21
-6.509
0
LINE
5
25C
100
AcDbEntity
8
0
6
ByLayer
62
1
370
-1
100
AcDbLine
10
148.1328
20
-6.509
11
147.32
21
-6.509
0
LINE
5
25D
100
AcDbEntity
8
0
6
ByLayer
62
1
370
-1
100
AcDbLine
10
147.32
20
-6.509
11
147.32
21
-1.50012
0
LINE
5
25E
100
AcDbEntity
8
0
6
ByLayer
62
1
370
-1
100
AcDbLine
10
147.32
20
-1.50012
11
148.1328
21
-1.50012
0
LINE
5
25F
100
AcDbEntity
8
0
6
ByLayer
62
1
370
-1
100
AcDbLine
10
148.1328
20
-1.50012
11
148.1328
21
2
0
LINE
5
260
100
AcDbEntity
8
0
6
ByLayer
62
1
370
-1
100
AcDbLine
10
148.1328
20
2
11
147.32
21
2
0
LINE
5
261
100
AcDbEntity
8
0
6
ByLayer
62
1
370
-1
100
AcDbLine
10
147.32
20
2
11
147.32
21
2.98044
0
LINE
5
262
100
AcDbEntity
8
0
6
ByLayer
62
1
370
-1
100
AcDbLine
10
147.32
20
-54.1695599997
11
133.35
21
-54.1695599997
0
LINE
5
263
100
AcDbEntity
8
0
6
ByLayer
62
1
370
-1
100
AcDbLine
10
133.35
20
-54.1695599997
11
133.35
21
-55.1499999997
0
LINE
5
264
100
AcDbEntity
8
0
6
ByLayer
62
1
370
-1
100
AcDbLine
10
133.35
20
-55.1499999997
11
132.5372
21
-55.1499999997
0
LINE
5
265
100
AcDbEntity
8
0
6
ByLayer
62
1
370
-1
100
AcDbLine
10
132.5372
20
-55.1499999997
11
132.5372
21
-58.6501199997
0
LINE
5
266
100
AcDbEntity
8
0
6
ByLayer
62
1
370
-1
100
AcDbLine
10
132.5372
20
-58.6501199997
11
133.35
21
-58.6501199997
0
LINE
5
267
100
AcDbEntity
8
0
6
ByLayer
62
1
370
-1
100
AcDbLine
10
133.35
20
-58.6501199997
11
133.35
21
-63.6589999997
0
LINE
5
268
100
AcDbEntity
8
0
6
ByLayer
62
1
370
-1
100
AcDbLine
10
133.35
20
-63.6589999997
11
132.5372
21
-63.6589999997
0
LINE
5
269
100
AcDbEntity
8
0
6
ByLayer
62
1
370
-1
100
AcDbLine
10
132.5372
20
-63.6589999997
11
132.5372
21
-67.1591199997
0
LINE
5
26A
100
AcDbEntity
8
0
6
ByLayer
62
1
370
-1
100
AcDbLine
10
132.5372
20
-67.1591199997
11
133.35
21
-67.1591199997
0
LINE
5
26B
100
AcDbEntity
8
0
6
ByLayer
62
1
370
-1
100
AcDbLine
10
133.35
20
-67.1591199997
11
133.35
21
-68.1395599997
0
LINE
5
26C
100
AcDbEntity
8
0
6
ByLayer
62
1
370
-1
100
AcDbLine
10
133.35
20
-68.1395599997
11
147.32
21
-68.1395599997
0
LINE
5
26D
100
AcDbEntity
8
0
6
ByLayer
62
1
370
-1
100
AcDbLine
10
147.32
20
-68.1395599997
11
147.32
21
-67.1591199997
0
LINE
5
26E
100
AcDbEntity
8
0
6
ByLayer
62
1
370
-1
100
AcDbLine
10
147.32
20
-67.1591199997
11
148.1328
21
-67.1591199997
0
LINE
5
26F
100
AcDbEntity
8
0
6
ByLayer
62
1
370
-1
100
AcDbLine
10
148.1328
20
-67.1591199997
11
148.1328
21
-63.6589999997
0
LINE
5
270
100
AcDbEntity
8
0
6
ByLayer
62
1
370
-1
100
AcDbLine
10
148.1328
20
-63.6589999997
11
147.32
21
-63.6589999997
0
LINE
5
271
100
AcDbEntity
8
0
6
ByLayer
62
1
370
-1
100
AcDbLine
10
147.32
20
-63.6589999997
11
147.32
21
-58.6501199997
0
LINE
5
272
100
AcDbEntity
8
0
6
ByLayer
62
1
370
-1
100
AcDbLine
10
147.32
20
-58.6501199997
11
148.1328
21
-58.6501199997
0
LINE
5
273
100
AcDbEntity
8
0
6
ByLayer
62
1
370
-1
100
AcDbLine
10
148.1328
20
-58.6501199997
11
148.1328
21
-55.1499999997
0
LINE
5
274
100
AcDbEntity
8
0
6
ByLayer
62
1
370
-1
100
AcDbLine
10
148.1328
20
-55.1499999997
11
147.32
21
-55.1499999997
0
LINE
5
275
100
AcDbEntity
8
0
6
ByLayer
62
1
370
-1
100
AcDbLine
10
147.32
20
-55.1499999997
11
147.32
21
-54.1695599997
0
LINE
5
276
100
AcDbEntity
8
0
6
ByLayer
62
1
370
-1
100
AcDbLine
10
133.35
20
-25.59456
11
133.35
21
-39.56456
0
LINE
5
277
100
AcDbEntity
8
0
6
ByLayer
62
1
370
-1
100
AcDbLine
10
133.35
20
-39.56456
11
134.33044
21
-39.56456
0
LINE
5
278
100
AcDbEntity
8
0
6
ByLayer
62
1
370
-1
100
AcDbLine
10
134.33044
20
-39.56456
11
134.33044
21
-40.37736
0
LINE
5
279
100
AcDbEntity
8
0
6
ByLayer
62
1
370
-1
100
AcDbLine
10
134.33044
20
-40.37736
11
137.83056
21
-40.37736
0
LINE
5
27A
100
AcDbEntity
8
0
6
ByLayer
62
1
370
-1
100
AcDbLine
10
137.83056
20
-40.37736
11
137.83056
21
-39.56456
0
LINE
5
27B
100
AcDbEntity
8
0
6
ByLayer
62
1
370
-1
100
AcDbLine
10
137.83056
20
-39.56456
11
142.83944
21
-39.56456
0
LINE
5
27C
100
AcDbEntity
8
0
6
ByLayer
62
1
370
-1
100
AcDbLine
10
142.83944
20
-39.56456
11
142.83944
21
-40.37736
0
LINE
5
27D
100
AcDbEntity
8
0
6
ByLayer
62
1
370
-1
100
AcDbLine
10
142.83944
20
-40.37736
11
146.33956
21
-40.37736
0
LINE
5
27E
100
AcDbEntity
8
0
6
ByLayer
62
1
370
-1
100
AcDbLine
10
146.33956
20
-40.37736
11
146.33956
21
-39.56456
0
LINE
5
27F
100
AcDbEntity
8
0
6
ByLayer
62
1
370
-1
100
AcDbLine
10
146.33956
20
-39.56456
11
147.32
21
-39.56456
0
LINE
5
280
100
AcDbEntity
8
0
6
ByLayer
62
1
370
-1
100
AcDbLine
10
147.32
20
-39.56456
11
147.32
21
-25.59456
0
LINE
5
281
100
AcDbEntity
8
0
6
ByLayer
62
1
370
-1
100
AcDbLine
10
147.32
20
-25.59456
11
146.33956
21
-25.59456
0
LINE
5
282
100
AcDbEntity
8
0
6
ByLayer
62
1
370
-1
100
AcDbLine
10
146.33956
20
-25.59456
11
146.33956
21
-24.78176
0
LINE
5
283
100
AcDbEntity
8
0
6
ByLayer
62
1
370
-1
100
AcDbLine
10
146.33956
20
-24.78176
11
142.83944
21
-24.78176
0
LINE
5
284
100
AcDbEntity
8
0
6
ByLayer
62
1
370
-1
100
AcDbLine
10
142.83944
20
-24.78176
11
142.83944
21
-25.59456
0
LINE
5
285
100
AcDbEntity
8
0
6
ByLayer
62
1
370
-1
100
AcDbLine
10
142.83944
20
-25.59456
11
137.83056
21
-25.59456
0
LINE
5
286
100
AcDbEntity
8
0
6
ByLayer
62
1
370
-1
100
AcDbLine
10
137.83056
20
-25.59456
11
137.83056
21
-24.78176
0
LINE
5
287
100
AcDbEntity
8
0
6
ByLayer
62
1
370
-1
100
AcDbLine
10
137.83056
20
-24.78176
11
134.33044
21
-24.78176
0
LINE
5
288
100
AcDbEntity
8
0
6
ByLayer
62
1
370
-1
100
AcDbLine
10
134.33044
20
-24.78176
11
134.33044
21
-25.59456
0
LINE
5
289
100
AcDbEntity
8
0
6
ByLayer
62
1
370
-1
100
AcDbLine
10
134.33044
20
-25.59456
11
133.35
21
-25.59456
0
LINE
5
28A
100
AcDbEntity
8
0
6
ByLayer
62
1
370
-1
100
AcDbLine
10
109.22
20
3.98044
11
95.2499999997
21
3.98044
0
LINE
5
28B
100
AcDbEntity
8
0
6
ByLayer
62
1
370
-1
100
AcDbLine
10
95.2499999997
20
3.98044
11
95.2499999997
21
3
0
LINE
5
28C
100
AcDbEntity
8
0
6
ByLayer
62
1
370
-1
100
AcDbLine
10
95.2499999997
20
3
11
94.4371999997
21
3
0
LINE
5
28D
100
AcDbEntity
8
0
6
ByLayer
62
1
370
-1
100
AcDbLine
10
94.4371999997
20
3
11
94.4371999997
21
-0.50012
0
LINE
5
28E
100
AcDbEntity
8
0
6
ByLayer
62
1
370
-1
100
AcDbLine
10
94.4371999997
20
-0.50012
11
95.2499999997
21
-0.50012
0
LINE
5
28F
100
AcDbEntity
8
0
6
ByLayer
62
1
370
-1
100
AcDbLine
10
95.2499999997
20
-0.50012
11
95.2499999997
21
-5.509
0
LINE
5
290
100
AcDbEntity
8
0
6
ByLayer
62
1
370
-1
100
AcDbLine
10
95.2499999997
20
-5.509
11
94.4371999997
21
-5.509
0
LINE
5
291
100
AcDbEntity
8
0
6
ByLayer
62
1
370
-1
100
AcDbLine
10
94.4371999997
20
-5.509
11
94.4371999997
21
-9.00912
0
LINE
5
292
100
AcDbEntity
8
0
6
ByLayer
62
1
370
-1
100
AcDbLine
10
94.4371999997
20
-9.00912
11
95.2499999997
21
-9.00912
0
LINE
5
293
100
AcDbEntity
8
0
6
ByLayer
62
1
370
-1
100
AcDbLine
10
95.2499999997
20
-9.00912
11
95.2499999997
21
-9.98956
0
LINE
5
294
100
AcDbEntity
8
0
6
ByLayer
62
1
370
-1
100
AcDbLine
10
95.2499999997
20
-9.98956
11
109.22
21
-9.98956
0
LINE
5
295
100
AcDbEntity
8
0
6
ByLayer
62
1
370
-1
100
AcDbLine
10
109.22
20
-9.98956
11
109.22
21
-9.00912
0
LINE
5
296
100
AcDbEntity
8
0
6
ByLayer
62
1
370
-1
100
AcDbLine
10
109.22
20
-9.00912
11
110.0328
21
-9.00912
0
LINE
5
297
100
AcDbEntity
8
0
6
ByLayer
62
1
370
-1
100
AcDbLine
10
110.0328
20
-9.00912
11
110.0328
21
-5.509
0
LINE
5
298
100
AcDbEntity
8
0
6
ByLayer
62
1
370
-1
100
AcDbLine
10
110.0328
20
-5.509
11
109.22
21
-5.509
0
LINE
5
299
100
AcDbEntity
8
0
6
ByLayer
62
1
370
-1
100
AcDbLine
10
109.22
20
-5.509
11
109.22
21
-0.50012
0
LINE
5
29A
100
AcDbEntity
8
0
6
ByLayer
62
1
370
-1
100
AcDbLine
10
109.22
20
-0.50012
11
110.0328
21
-0.50012
0
LINE
5
29B
100
AcDbEntity
8
0
6
ByLayer
62
1
370
-1
100
AcDbLine
10
110.0328
20
-0.50012
11
110.0328
21
3
0
LINE
5
29C
100
AcDbEntity
8
0
6
ByLayer
62
1
370
-1
100
AcDbLine
10
110.0328
20
3
11
109.22
21
3
0
LINE
5
29D
100
AcDbEntity
8
0
6
ByLayer
62
1
370
-1
100
AcDbLine
10
109.22
20
3
11
109.22
21
3.98044
0
LINE
5
29E
100
AcDbEntity
8
0
6
ByLayer
62
1
370
-1
100
AcDbLine
10
109.22
20
-15.06956
11
95.2499999997
21
-15.06956
0
LINE
5
29F
100
AcDbEntity
8
0
6
ByLayer
62
1
370
-1
100
AcDbLine
10
95.2499999997
20
-15.06956
11
95.2499999997
21
-16.05
0
LINE
5
2A0
100
AcDbEntity
8
0
6
ByLayer
62
1
370
-1
100
AcDbLine
10
95.2499999997
20
-16.05
11
94.4371999997
21
-16.05
0
LINE
5
2A1
100
AcDbEntity
8
0
6
ByLayer
62
1
370
-1
100
AcDbLine
10
94.4371999997
20
-16.05
11
94.4371999997
21
-19.55012
0
LINE
5
2A2
100
AcDbEntity
8
0
6
ByLayer
62
1
370
-1
100
AcDbLine
10
94.4371999997
20
-19.55012
11
95.2499999997
21
-19.55012
0
LINE
5
2A3
100
AcDbEntity
8
0
6
ByLayer
62
1
370
-1
100
AcDbLine
10
95.2499999997
20
-19.55012
11
95.2499999997
21
-24.559
0
LINE
5
2A4
100
AcDbEntity
8
0
6
ByLayer
62
1
370
-1
100
AcDbLine
10
95.2499999997
20
-24.559
11
94.4371999997
21
-24.559
0
LINE
5
2A5
100
AcDbEntity
8
0
6
ByLayer
62
1
370
-1
100
AcDbLine
10
94.4371999997
20
-24.559
11
94.4371999997
21
-28.05912
0
LINE
5
2A6
100
AcDbEntity
8
0
6
ByLayer
62
1
370
-1
100
AcDbLine
10
94.4371999997
20
-28.05912
11
95.2499999997
21
-28.05912
0
LINE
5
2A7
100
AcDbEntity
8
0
6
ByLayer
62
1
370
-1
100
AcDbLine
10
95.2499999997
20
-28.05912
11
95.2499999997
21
-29.03956
0
LINE
5
2A8
100
AcDbEntity
8
0
6
ByLayer
62
1
370
-1
100
AcDbLine
10
95.2499999997
20
-29.03956
11
109.22
21
-29.03956
0
LINE
5
2A9
100
AcDbEntity
8
0
6
ByLayer
62
1
370
-1
100
AcDbLine
10
109.22
20
-29.03956
11
109.22
21
-28.05912
0
LINE
5
2AA
100
AcDbEntity
8
0
6
ByLayer
62
1
370
-1
100
AcDbLine
10
109.22
20
-28.05912
11
110.0328
21
-28.05912
0
LINE
5
2AB
100
AcDbEntity
8
0
6
ByLayer
62
1
370
-1
100
AcDbLine
10
110.0328
20
-28.05912
11
110.0328
21
-24.559
0
LINE
5
2AC
100
AcDbEntity
8
0
6
ByLayer
62
1
370
-1
100
AcDbLine
10
110.0328
20
-24.559
11
109.22
21
-24.559
0
LINE
5
2AD
100
AcDbEntity
8
0
6
ByLayer
62
1
370
-1
100
AcDbLine
10
109.22
20
-24.559
11
109.22
21
-19.55012
0
LINE
5
2AE
100
AcDbEntity
8
0
6
ByLayer
62
1
370
-1
100
AcDbLine
10
109.22
20
-19.55012
11
110.0328
21
-19.55012
0
LINE
5
2AF
100
AcDbEntity
8
0
6
ByLayer
62
1
370
-1
100
AcDbLine
10
110.0328
20
-19.55012
11
110.0328
21
-16.05
0
LINE
5
2B0
100
AcDbEntity
8
0
6
ByLayer
62
1
370
-1
100
AcDbLine
10
110.0328
20
-16.05
11
109.22
21
-16.05
0
LINE
5
2B1
100
AcDbEntity
8
0
6
ByLayer
62
1
370
-1
100
AcDbLine
10
109.22
20
-16.05
11
109.22
21
-15.06956
0
LINE
5
2B2
100
AcDbEntity
8
0
6
ByLayer
62
1
370
-1
100
AcDbLine
10
109.22
20
-34.11956
11
95.2499999997
21
-34.11956
0
LINE
5
2B3
100
AcDbEntity
8
0
6
ByLayer
62
1
370
-1
100
AcDbLine
10
95.2499999997
20
-34.11956
11
95.2499999997
21
-35.1
0
LINE
5
2B4
100
AcDbEntity
8
0
6
ByLayer
62
1
370
-1
100
AcDbLine
10
95.2499999997
20
-35.1
11
94.4371999997
21
-35.1
0
LINE
5
2B5
100
AcDbEntity
8
0
6
ByLayer
62
1
370
-1
100
AcDbLine
10
94.4371999997
20
-35.1
11
94.4371999997
21
-38.60012
0
LINE
5
2B6
100
AcDbEntity
8
0
6
ByLayer
62
1
370
-1
100
AcDbLine
10
94.4371999997
20
-38.60012
11
95.2499999997
21
-38.60012
0
LINE
5
2B7
100
AcDbEntity
8
0
6
ByLayer
62
1
370
-1
100
AcDbLine
10
95.2499999997
20
-38.60012
11
95.2499999997
21
-43.609
0
LINE
5
2B8
100
AcDbEntity
8
0
6
ByLayer
62
1
370
-1
100
AcDbLine
10
95.2499999997
20
-43.609
11
94.4371999997
21
-43.609
0
LINE
5
2B9
100
AcDbEntity
8
0
6
ByLayer
62
1
370
-1
100
AcDbLine
10
94.4371999997
20
-43.609
11
94.4371999997
21
-47.1091199997
0
LINE
5
2BA
100
AcDbEntity
8
0
6
ByLayer
62
1
370
-1
100
AcDbLine
10
94.4371999997
20
-47.1091199997
11
95.2499999997
21
-47.1091199997
0
LINE
5
2BB
100
AcDbEntity
8
0
6
ByLayer
62
1
370
-1
100
AcDbLine
10
95.2499999997
20
-47.1091199997
11
95.2499999997
21
-48.0895599997
0
LINE
5
2BC
100
AcDbEntity
8
0
6
ByLayer
62
1
370
-1
100
AcDbLine
10
95.2499999997
20
-48.0895599997
11
109.22
21
-48.0895599997
0
LINE
5
2BD
100
AcDbEntity
8
0
6
ByLayer
62
1
370
-1
100
AcDbLine
10
109.22
20
-48.0895599997
11
109.22
21
-47.1091199997
0
LINE
5
2BE
100
AcDbEntity
8
0
6
ByLayer
62
1
370
-1
100
AcDbLine
10
109.22
20
-47.1091199997
11
110.0328
21
-47.1091199997
0
LINE
5
2BF
100
AcDbEntity
8
0
6
ByLayer
62
1
370
-1
100
AcDbLine
10
110.0328
20
-47.1091199997
11
110.0328
21
-43.609
0
LINE
5
2C0
100
AcDbEntity
8
0
6
ByLayer
62
1
370
-1
100
AcDbLine
10
110.0328
20
-43.609
11
109.22
21
-43.609
0
LINE
5
2C1
100
AcDbEntity
8
0
6
ByLayer
62
1
370
-1
100
AcDbLine
10
109.22
20
-43.609
11
109.22
21
-38.60012
0
LINE
5
2C2
100
AcDbEntity
8
0
6
ByLayer
62
1
370
-1
100
AcDbLine
10
109.22
20
-38.60012
11
110.0328
21
-38.60012
0
LINE
5
2C3
100
AcDbEntity
8
0
6
ByLayer
62
1
370
-1
100
AcDbLine
10
110.0328
20
-38.60012
11
110.0328
21
-35.1
0
LINE
5
2C4
100
AcDbEntity
8
0
6
ByLayer
62
1
370
-1
100
AcDbLine
10
110.0328
20
-35.1
11
109.22
21
-35.1
0
LINE
5
2C5
100
AcDbEntity
8
0
6
ByLayer
62
1
370
-1
100
AcDbLine
10
109.22
20
-35.1
11
109.22
21
-34.11956
0
LINE
5
2C6
100
AcDbEntity
8
0
6
ByLayer
62
1
370
-1
100
AcDbLine
10
109.22
20
-53.1695599997
11
95.2499999997
21
-53.1695599997
0
LINE
5
2C7
100
AcDbEntity
8
0
6
ByLayer
62
1
370
-1
100
AcDbLine
10
95.2499999997
20
-53.1695599997
11
95.2499999997
21
-54.1499999997
0
LINE
5
2C8
100
AcDbEntity
8
0
6
ByLayer
62
1
370
-1
100
AcDbLine
10
95.2499999997
20
-54.1499999997
11
94.4371999997
21
-54.1499999997
0
LINE
5
2C9
100
AcDbEntity
8
0
6
ByLayer
62
1
370
-1
100
AcDbLine
10
94.4371999997
20
-54.1499999997
11
94.4371999997
21
-57.6501199997
0
LINE
5
2CA
100
AcDbEntity
8
0
6
ByLayer
62
1
370
-1
100
AcDbLine
10
94.4371999997
20
-57.6501199997
11
95.2499999997
21
-57.6501199997
0
LINE
5
2CB
100
AcDbEntity
8
0
6
ByLayer
62
1
370
-1
100
AcDbLine
10
95.2499999997
20
-57.6501199997
11
95.2499999997
21
-62.6589999997
0
LINE
5
2CC
100
AcDbEntity
8
0
6
ByLayer
62
1
370
-1
100
AcDbLine
10
95.2499999997
20
-62.6589999997
11
94.4371999997
21
-62.6589999997
0
LINE
5
2CD
100
AcDbEntity
8
0
6
ByLayer
62
1
370
-1
100
AcDbLine
10
94.4371999997
20
-62.6589999997
11
94.4371999997
21
-66.1591199997
0
LINE
5
2CE
100
AcDbEntity
8
0
6
ByLayer
62
1
370
-1
100
AcDbLine
10
94.4371999997
20
-66.1591199997
11
95.2499999997
21
-66.1591199997
0
LINE
5
2CF
100
AcDbEntity
8
0
6
ByLayer
62
1
370
-1
100
AcDbLine
10
95.2499999997
20
-66.1591199997
11
95.2499999997
21
-67.1395599997
0
LINE
5
2D0
100
AcDbEntity
8
0
6
ByLayer
62
1
370
-1
100
AcDbLine
10
95.2499999997
20
-67.1395599997
11
109.22
21
-67.1395599997
0
LINE
5
2D1
100
AcDbEntity
8
0
6
ByLayer
62
1
370
-1
100
AcDbLine
10
109.22
20
-67.1395599997
11
109.22
21
-66.1591199997
0
LINE
5
2D2
100
AcDbEntity
8
0
6
ByLayer
62
1
370
-1
100
AcDbLine
10
109.22
20
-66.1591199997
11
110.0328
21
-66.1591199997
0
LINE
5
2D3
100
AcDbEntity
8
0
6
ByLayer
62
1
370
-1
100
AcDbLine
10
110.0328
20
-66.1591199997
11
110.0328
21
-62.6589999997
0
LINE
5
2D4
100
AcDbEntity
8
0
6
ByLayer
62
1
370
-1
100
AcDbLine
10
110.0328
20
-62.6589999997
11
109.22
21
-62.6589999997
0
LINE
5
2D5
100
AcDbEntity
8
0
6
ByLayer
62
1
370
-1
100
AcDbLine
10
109.22
20
-62.6589999997
11
109.22
21
-57.6501199997
0
LINE
5
2D6
100
AcDbEntity
8
0
6
ByLayer
62
1
370
-1
100
AcDbLine
10
109.22
20
-57.6501199997
11
110.0328
21
-57.6501199997
0
LINE
5
2D7
100
AcDbEntity
8
0
6
ByLayer
62
1
370
-1
100
AcDbLine
10
110.0328
20
-57.6501199997
11
110.0328
21
-54.1499999997
0
LINE
5
2D8
100
AcDbEntity
8
0
6
ByLayer
62
1
370
-1
100
AcDbLine
10
110.0328
20
-54.1499999997
11
109.22
21
-54.1499999997
0
LINE
5
2D9
100
AcDbEntity
8
0
6
ByLayer
62
1
370
-1
100
AcDbLine
10
109.22
20
-54.1499999997
11
109.22
21
-53.1695599997
0
LINE
5
2DA
100
AcDbEntity
8
0
6
ByLayer
62
1
370
-1
100
AcDbLine
10
109.22
20
-72.2195599997
11
95.2499999997
21
-72.2195599997
0
LINE
5
2DB
100
AcDbEntity
8
0
6
ByLayer
62
1
370
-1
100
AcDbLine
10
95.2499999997
20
-72.2195599997
11
95.2499999997
21
-73.1999999997
0
LINE
5
2DC
100
AcDbEntity
8
0
6
ByLayer
62
1
370
-1
100
AcDbLine
10
95.2499999997
20
-73.1999999997
11
94.4371999997
21
-73.1999999997
0
LINE
5
2DD
100
AcDbEntity
8
0
6
ByLayer
62
1
370
-1
100
AcDbLine
10
94.4371999997
20
-73.1999999997
11
94.4371999997
21
-76.7001199997
0
LINE
5
2DE
100
AcDbEntity
8
0
6
ByLayer
62
1
370
-1
100
AcDbLine
10
94.4371999997
20
-76.7001199997
11
95.2499999997
21
-76.7001199997
0
LINE
5
2DF
100
AcDbEntity
8
0
6
ByLayer
62
1
370
-1
100
AcDbLine
10
95.2499999997
20
-76.7001199997
11
95.2499999997
21
-81.7089999997
0
LINE
5
2E0
100
AcDbEntity
8
0
6
ByLayer
62
1
370
-1
100
AcDbLine
10
95.2499999997
20
-81.7089999997
11
94.4371999997
21
-81.7089999997
0
LINE
5
2E1
100
AcDbEntity
8
0
6
ByLayer
62
1
370
-1
100
AcDbLine
10
94.4371999997
20
-81.7089999997
11
94.4371999997
21
-85.2091199997
0
LINE
5
2E2
100
AcDbEntity
8
0
6
ByLayer
62
1
370
-1
100
AcDbLine
10
94.4371999997
20
-85.2091199997
11
95.2499999997
21
-85.2091199997
0
LINE
5
2E3
100
AcDbEntity
8
0
6
ByLayer
62
1
370
-1
100
AcDbLine
10
95.2499999997
20
-85.2091199997
11
95.2499999997
21
-86.1895599997
0
LINE
5
2E4
100
AcDbEntity
8
0
6
ByLayer
62
1
370
-1
100
AcDbLine
10
95.2499999997
20
-86.1895599997
11
109.22
21
-86.1895599997
0
LINE
5
2E5
100
AcDbEntity
8
0
6
ByLayer
62
1
370
-1
100
AcDbLine
10
109.22
20
-86.1895599997
11
109.22
21
-85.2091199997
0
LINE
5
2E6
100
AcDbEntity
8
0
6
ByLayer
62
1
370
-1
100
AcDbLine
10
109.22
20
-85.2091199997
11
110.0328
21
-85.2091199997
0
LINE
5
2E7
100
AcDbEntity
8
0
6
ByLayer
62
1
370
-1
100
AcDbLine
10
110.0328
20
-85.2091199997
11
110.0328
21
-81.7089999997
0
LINE
5
2E8
100
AcDbEntity
8
0
6
ByLayer
62
1
370
-1
100
AcDbLine
10
110.0328
20
-81.7089999997
11
109.22
21
-81.7089999997
0
LINE
5
2E9
100
AcDbEntity
8
0
6
ByLayer
62
1
370
-1
100
AcDbLine
10
109.22
20
-81.7089999997
11
109.22
21
-76.7001199997
0
LINE
5
2EA
100
AcDbEntity
8
0
6
ByLayer
62
1
370
-1
100
AcDbLine
10
109.22
20
-76.7001199997
11
110.0328
21
-76.7001199997
0
LINE
5
2EB
100
AcDbEntity
8
0
6
ByLayer
62
1
370
-1
100
AcDbLine
10
110.0328
20
-76.7001199997
11
110.0328
21
-73.1999999997
0
LINE
5
2EC
100
AcDbEntity
8
0
6
ByLayer
62
1
370
-1
100
AcDbLine
10
110.0328
20
-73.1999999997
11
109.22
21
-73.1999999997
0
LINE
5
2ED
100
AcDbEntity
8
0
6
ByLayer
62
1
370
-1
100
AcDbLine
10
109.22
20
-73.1999999997
11
109.22
21
-72.2195599997
0
LINE
5
2EE
100
AcDbEntity
8
0
6
ByLayer
62
1
370
-1
100
AcDbLine
10
174.95
20
-2.01956
11
160.98
21
-2.01956
0
LINE
5
2EF
100
AcDbEntity
8
0
6
ByLayer
62
1
370
-1
100
AcDbLine
10
160.98
20
-2.01956
11
160.98
21
-3
0
LINE
5
2F0
100
AcDbEntity
8
0
6
ByLayer
62
1
370
-1
100
AcDbLine
10
160.98
20
-3
11
160.1672
21
-3
0
LINE
5
2F1
100
AcDbEntity
8
0
6
ByLayer
62
1
370
-1
100
AcDbLine
10
160.1672
20
-3
11
160.1672
21
-6.50012
0
LINE
5
2F2
100
AcDbEntity
8
0
6
ByLayer
62
1
370
-1
100
AcDbLine
10
160.1672
20
-6.50012
11
160.98
21
-6.50012
0
LINE
5
2F3
100
AcDbEntity
8
0
6
ByLayer
62
1
370
-1
100
AcDbLine
10
160.98
20
-6.50012
11
160.98
21
-11.509
0
LINE
5
2F4
100
AcDbEntity
8
0
6
ByLayer
62
1
370
-1
100
AcDbLine
10
160.98
20
-11.509
11
160.1672
21
-11.509
0
LINE
5
2F5
100
AcDbEntity
8
0
6
ByLayer
62
1
370
-1
100
AcDbLine
10
160.1672
20
-11.509
11
160.1672
21
-15.00912
0
LINE
5
2F6
100
AcDbEntity
8
0
6
ByLayer
62
1
370
-1
100
AcDbLine
10
160.1672
20
-15.00912
11
160.98
21
-15.00912
0
LINE
5
2F7
100
AcDbEntity
8
0
6
ByLayer
62
1
370
-1
100
AcDbLine
10
160.98
20
-15.00912
11
160.98
21
-15.98956
0
LINE
5
2F8
100
AcDbEntity
8
0
6
ByLayer
62
1
370
-1
100
AcDbLine
10
160.98
20
-15.98956
11
174.95
21
-15.98956
0
LINE
5
2F9
100
AcDbEntity
8
0
6
ByLayer
62
1
370
-1
100
AcDbLine
10
174.95
20
-15.98956
11
174.95
21
-15.00912
0
LINE
5
2FA
100
AcDbEntity
8
0
6
ByLayer
62
1
370
-1
100
AcDbLine
10
174.95
20
-15.00912
11
175.7628
21
-15.00912
0
LINE
5
2FB
100
AcDbEntity
8
0
6
ByLayer
62
1
370
-1
100
AcDbLine
10
175.7628
20
-15.00912
11
175.7628
21
-11.509
0
LINE
5
2FC
100
AcDbEntity
8
0
6
ByLayer
62
1
370
-1
100
AcDbLine
10
175.7628
20
-11.509
11
174.95
21
-11.509
0
LINE
5
2FD
100
AcDbEntity
8
0
6
ByLayer
62
1
370
-1
100
AcDbLine
10
174.95
20
-11.509
11
174.95
21
-6.50012
0
LINE
5
2FE
100
AcDbEntity
8
0
6
ByLayer
62
1
370
-1
100
AcDbLine
10
174.95
20
-6.50012
11
175.7628
21
-6.50012
0
LINE
5
2FF
100
AcDbEntity
8
0
6
ByLayer
62
1
370
-1
100
AcDbLine
10
175.7628
20
-6.50012
11
175.7628
21
-3
0
LINE
5
300
100
AcDbEntity
8
0
6
ByLayer
62
1
370
-1
100
AcDbLine
10
175.7628
20
-3
11
174.95
21
-3
0
LINE
5
301
100
AcDbEntity
8
0
6
ByLayer
62
1
370
-1
100
AcDbLine
10
174.95
20
-3
11
174.95
21
-2.01956
0
LINE
5
302
100
AcDbEntity
8
0
6
ByLayer
62
1
370
-1
100
AcDbLine
10
174.95
20
-21.06956
11
160.98
21
-21.06956
0
LINE
5
303
100
AcDbEntity
8
0
6
ByLayer
62
1
370
-1
100
AcDbLine
10
160.98
20
-21.06956
11
160.98
21
-22.05
0
LINE
5
304
100
AcDbEntity
8
0
6
ByLayer
62
1
370
-1
100
AcDbLine
10
160.98
20
-22.05
11
160.1672
21
-22.05
0
LINE
5
305
100
AcDbEntity
8
0
6
ByLayer
62
1
370
-1
100
AcDbLine
10
160.1672
20
-22.05
11
160.1672
21
-25.55012
0
LINE
5
306
100
AcDbEntity
8
0
6
ByLayer
62
1
370
-1
100
AcDbLine
10
160.1672
20
-25.55012
11
160.98
21
-25.55012
0
LINE
5
307
100
AcDbEntity
8
0
6
ByLayer
62
1
370
-1
100
AcDbLine
10
160.98
20
-25.55012
11
160.98
21
-30.559
0
LINE
5
308
100
AcDbEntity
8
0
6
ByLayer
62
1
370
-1
100
AcDbLine
10
160.98
20
-30.559
11
160.1672
21
-30.559
0
LINE
5
309
100
AcDbEntity
8
0
6
ByLayer
62
1
370
-1
100
AcDbLine
10
160.1672
20
-30.559
11
160.1672
21
-34.05912
0
LINE
5
30A
100
AcDbEntity
8
0
6
ByLayer
62
1
370
-1
100
AcDbLine
10
160.1672
20
-34.05912
11
160.98
21
-34.05912
0
LINE
5
30B
100
AcDbEntity
8
0
6
ByLayer
62
1
370
-1
100
AcDbLine
10
160.98
20
-34.05912
11
160.98
21
-35.03956
0
LINE
5
30C
100
AcDbEntity
8
0
6
ByLayer
62
1
370
-1
100
AcDbLine
10
160.98
20
-35.03956
11
174.95
21
-35.03956
0
LINE
5
30D
100
AcDbEntity
8
0
6
ByLayer
62
1
370
-1
100
AcDbLine
10
174.95
20
-35.03956
11
174.95
21
-34.05912
0
LINE
5
30E
100
AcDbEntity
8
0
6
ByLayer
62
1
370
-1
100
AcDbLine
10
174.95
20
-34.05912
11
175.7628
21
-34.05912
0
LINE
5
30F
100
AcDbEntity
8
0
6
ByLayer
62
1
370
-1
100
AcDbLine
10
175.7628
20
-34.05912
11
175.7628
21
-30.559
0
LINE
5
310
100
AcDbEntity
8
0
6
ByLayer
62
1
370
-1
100
AcDbLine
10
175.7628
20
-30.559
11
174.95
21
-30.559
0
LINE
5
311
100
AcDbEntity
8
0
6
ByLayer
62
1
370
-1
100
AcDbLine
10
174.95
20
-30.559
11
174.95
21
-25.55012
0
LINE
5
312
100
AcDbEntity
8
0
6
ByLayer
62
1
370
-1
100
AcDbLine
10
174.95
20
-25.55012
11
175.7628
21
-25.55012
0
LINE
5
313
100
AcDbEntity
8
0
6
ByLayer
62
1
370
-1
100
AcDbLine
10
175.7628
20
-25.55012
11
175.7628
21
-22.05
0
LINE
5
314
100
AcDbEntity
8
0
6
ByLayer
62
1
370
-1
100
AcDbLine
10
175.7628
20
-22.05
11
174.95
21
-22.05
0
LINE
5
315
100
AcDbEntity
8
0
6
ByLayer
62
1
370
-1
100
AcDbLine
10
174.95
20
-22.05
11
174.95
21
-21.06956
0
LINE
5
316
100
AcDbEntity
8
0
6
ByLayer
62
1
370
-1
100
AcDbLine
10
174.95
20
-40.11956
11
160.98
21
-40.11956
0
LINE
5
317
100
AcDbEntity
8
0
6
ByLayer
62
1
370
-1
100
AcDbLine
10
160.98
20
-40.11956
11
160.98
21
-41.1
0
LINE
5
318
100
AcDbEntity
8
0
6
ByLayer
62
1
370
-1
100
AcDbLine
10
160.98
20
-41.1
11
160.1672
21
-41.1
0
LINE
5
319
100
AcDbEntity
8
0
6
ByLayer
62
1
370
-1
100
AcDbLine
10
160.1672
20
-41.1
11
160.1672
21
-44.60012
0
LINE
5
31A
100
AcDbEntity
8
0
6
ByLayer
62
1
370
-1
100
AcDbLine
10
160.1672
20
-44.60012
11
160.98
21
-44.60012
0
LINE
5
31B
100
AcDbEntity
8
0
6
ByLayer
62
1
370
-1
100
AcDbLine
10
160.98
20
-44.60012
11
160.98
21
-49.6089999997
0
LINE
5
31C
100
AcDbEntity
8
0
6
ByLayer
62
1
370
-1
100
AcDbLine
10
160.98
20
-49.6089999997
11
160.1672
21
-49.6089999997
0
LINE
5
31D
100
AcDbEntity
8
0
6
ByLayer
62
1
370
-1
100
AcDbLine
10
160.1672
20
-49.6089999997
11
160.1672
21
-53.1091199997
0
LINE
5
31E
100
AcDbEntity
8
0
6
ByLayer
62
1
370
-1
100
AcDbLine
10
160.1672
20
-53.1091199997
11
160.98
21
-53.1091199997
0
LINE
5
31F
100
AcDbEntity
8
0
6
ByLayer
62
1
370
-1
100
AcDbLine
10
160.98
20
-53.1091199997
11
160.98
21
-54.0895599997
0
LINE
5
320
100
AcDbEntity
8
0
6
ByLayer
62
1
370
-1
100
AcDbLine
10
160.98
20
-54.0895599997
11
174.95
21
-54.0895599997
0
LINE
5
321
100
AcDbEntity
8
0
6
ByLayer
62
1
370
-1
100
AcDbLine
10
174.95
20
-54.0895599997
11
174.95
21
-53.1091199997
0
LINE
5
322
100
AcDbEntity
8
0
6
ByLayer
62
1
370
-1
100
AcDbLine
10
174.95
20
-53.1091199997
11
175.7628
21
-53.1091199997
0
LINE
5
323
100
AcDbEntity
8
0
6
ByLayer
62
1
370
-1
100
AcDbLine
10
175.7628
20
-53.1091199997
11
175.7628
21
-49.6089999997
0
LINE
5
324
100
AcDbEntity
8
0
6
ByLayer
62
1
370
-1
100
AcDbLine
10
175.7628
20
-49.6089999997
11
174.95
21
-49.6089999997
0
LINE
5
325
100
AcDbEntity
8
0
6
ByLayer
62
1
370
-1
100
AcDbLine
10
174.95
20
-49.6089999997
11
174.95
21
-44.60012
0
LINE
5
326
100
AcDbEntity
8
0
6
ByLayer
62
1
370
-1
100
AcDbLine
10
174.95
20
-44.60012
11
175.7628
21
-44.60012
0
LINE
5
327
100
AcDbEntity
8
0
6
ByLayer
62
1
370
-1
100
AcDbLine
10
175.7628
20
-44.60012
11
175.7628
21
-41.1
0
LINE
5
328
100
AcDbEntity
8
0
6
ByLayer
62
1
370
-1
100
AcDbLine
10
175.7628
20
-41.1
11
174.95
21
-41.1
0
LINE
5
329
100
AcDbEntity
8
0
6
ByLayer
62
1
370
-1
100
AcDbLine
10
174.95
20
-41.1
11
174.95
21
-40.11956
0
LINE
5
32A
100
AcDbEntity
8
0
6
ByLayer
62
1
370
-1
100
AcDbLine
10
174.95
20
-59.1695599997
11
160.98
21
-59.1695599997
0
LINE
5
32B
100
AcDbEntity
8
0
6
ByLayer
62
1
370
-1
100
AcDbLine
10
160.98
20
-59.1695599997
11
160.98
21
-60.1499999997
0
LINE
5
32C
100
AcDbEntity
8
0
6
ByLayer
62
1
370
-1
100
AcDbLine
10
160.98
20
-60.1499999997
11
160.1672
21
-60.1499999997
0
LINE
5
32D
100
AcDbEntity
8
0
6
ByLayer
62
1
370
-1
100
AcDbLine
10
160.1672
20
-60.1499999997
11
160.1672
21
-63.6501199997
0
LINE
5
32E
100
AcDbEntity
8
0
6
ByLayer
62
1
370
-1
100
AcDbLine
10
160.1672
20
-63.6501199997
11
160.98
21
-63.6501199997
0
LINE
5
32F
100
AcDbEntity
8
0
6
ByLayer
62
1
370
-1
100
AcDbLine
10
160.98
20
-63.6501199997
11
160.98
21
-68.6589999997
0
LINE
5
330
100
AcDbEntity
8
0
6
ByLayer
62
1
370
-1
100
AcDbLine
10
160.98
20
-68.6589999997
11
160.1672
21
-68.6589999997
0
LINE
5
331
100
AcDbEntity
8
0
6
ByLayer
62
1
370
-1
100
AcDbLine
10
160.1672
20
-68.6589999997
11
160.1672
21
-72.1591199997
0
LINE
5
332
100
AcDbEntity
8
0
6
ByLayer
62
1
370
-1
100
AcDbLine
10
160.1672
20
-72.1591199997
11
160.98
21
-72.1591199997
0
LINE
5
333
100
AcDbEntity
8
0
6
ByLayer
62
1
370
-1
100
AcDbLine
10
160.98
20
-72.1591199997
11
160.98
21
-73.1395599997
0
LINE
5
334
100
AcDbEntity
8
0
6
ByLayer
62
1
370
-1
100
AcDbLine
10
160.98
20
-73.1395599997
11
174.95
21
-73.1395599997
0
LINE
5
335
100
AcDbEntity
8
0
6
ByLayer
62
1
370
-1
100
AcDbLine
10
174.95
20
-73.1395599997
11
174.95
21
-72.1591199997
0
LINE
5
336
100
AcDbEntity
8
0
6
ByLayer
62
1
370
-1
100
AcDbLine
10
174.95
20
-72.1591199997
11
175.7628
21
-72.1591199997
0
LINE
5
337
100
AcDbEntity
8
0
6
ByLayer
62
1
370
-1
100
AcDbLine
10
175.7628
20
-72.1591199997
11
175.7628
21
-68.6589999997
0
LINE
5
338
100
AcDbEntity
8
0
6
ByLayer
62
1
370
-1
100
AcDbLine
10
175.7628
20
-68.6589999997
11
174.95
21
-68.6589999997
0
LINE
5
339
100
AcDbEntity
8
0
6
ByLayer
62
1
370
-1
100
AcDbLine
10
174.95
20
-68.6589999997
11
174.95
21
-63.6501199997
0
LINE
5
33A
100
AcDbEntity
8
0
6
ByLayer
62
1
370
-1
100
AcDbLine
10
174.95
20
-63.6501199997
11
175.7628
21
-63.6501199997
0
LINE
5
33B
100
AcDbEntity
8
0
6
ByLayer
62
1
370
-1
100
AcDbLine
10
175.7628
20
-63.6501199997
11
175.7628
21
-60.1499999997
0
LINE
5
33C
100
AcDbEntity
8
0
6
ByLayer
62
1
370
-1
100
AcDbLine
10
175.7628
20
-60.1499999997
11
174.95
21
-60.1499999997
0
LINE
5
33D
100
AcDbEntity
8
0
6
ByLayer
62
1
370
-1
100
AcDbLine
10
174.95
20
-60.1499999997
11
174.95
21
-59.1695599997
0
LINE
5
33E
100
AcDbEntity
8
0
6
ByLayer
62
1
370
-1
100
AcDbLine
10
194
20
-2.01956
11
180.03
21
-2.01956
0
LINE
5
33F
100
AcDbEntity
8
0
6
ByLayer
62
1
370
-1
100
AcDbLine
10
180.03
20
-2.01956
11
180.03
21
-3
0
LINE
5
340
100
AcDbEntity
8
0
6
ByLayer
62
1
370
-1
100
AcDbLine
10
180.03
20
-3
11
179.2172
21
-3
0
LINE
5
341
100
AcDbEntity
8
0
6
ByLayer
62
1
370
-1
100
AcDbLine
10
179.2172
20
-3
11
179.2172
21
-6.50012
0
LINE
5
342
100
AcDbEntity
8
0
6
ByLayer
62
1
370
-1
100
AcDbLine
10
179.2172
20
-6.50012
11
180.03
21
-6.50012
0
LINE
5
343
100
AcDbEntity
8
0
6
ByLayer
62
1
370
-1
100
AcDbLine
10
180.03
20
-6.50012
11
180.03
21
-11.509
0
LINE
5
344
100
AcDbEntity
8
0
6
ByLayer
62
1
370
-1
100
AcDbLine
10
180.03
20
-11.509
11
179.2172
21
-11.509
0
LINE
5
345
100
AcDbEntity
8
0
6
ByLayer
62
1
370
-1
100
AcDbLine
10
179.2172
20
-11.509
11
179.2172
21
-15.00912
0
LINE
5
346
100
AcDbEntity
8
0
6
ByLayer
62
1
370
-1
100
AcDbLine
10
179.2172
20
-15.00912
11
180.03
21
-15.00912
0
LINE
5
347
100
AcDbEntity
8
0
6
ByLayer
62
1
370
-1
100
AcDbLine
10
180.03
20
-15.00912
11
180.03
21
-15.98956
0
LINE
5
348
100
AcDbEntity
8
0
6
ByLayer
62
1
370
-1
100
AcDbLine
10
180.03
20
-15.98956
11
194
21
-15.98956
0
LINE
5
349
100
AcDbEntity
8
0
6
ByLayer
62
1
370
-1
100
AcDbLine
10
194
20
-15.98956
11
194
21
-15.00912
0
LINE
5
34A
100
AcDbEntity
8
0
6
ByLayer
62
1
370
-1
100
AcDbLine
10
194
20
-15.00912
11
194.8128
21
-15.00912
0
LINE
5
34B
100
AcDbEntity
8
0
6
ByLayer
62
1
370
-1
100
AcDbLine
10
194.8128
20
-15.00912
11
194.8128
21
-11.509
0
LINE
5
34C
100
AcDbEntity
8
0
6
ByLayer
62
1
370
-1
100
AcDbLine
10
194.8128
20
-11.509
11
194
21
-11.509
0
LINE
5
34D
100
AcDbEntity
8
0
6
ByLayer
62
1
370
-1
100
AcDbLine
10
194
20
-11.509
11
194
21
-6.50012
0
LINE
5
34E
100
AcDbEntity
8
0
6
ByLayer
62
1
370
-1
100
AcDbLine
10
194
20
-6.50012
11
194.8128
21
-6.50012
0
LINE
5
34F
100
AcDbEntity
8
0
6
ByLayer
62
1
370
-1
100
AcDbLine
10
194.8128
20
-6.50012
11
194.8128
21
-3
0
LINE
5
350
100
AcDbEntity
8
0
6
ByLayer
62
1
370
-1
100
AcDbLine
10
194.8128
20
-3
11
194
21
-3
0
LINE
5
351
100
AcDbEntity
8
0
6
ByLayer
62
1
370
-1
100
AcDbLine
10
194
20
-3
11
194
21
-2.01956
0
LINE
5
352
100
AcDbEntity
8
0
6
ByLayer
62
1
370
-1
100
AcDbLine
10
194
20
-21.06956
11
180.03
21
-21.06956
0
LINE
5
353
100
AcDbEntity
8
0
6
ByLayer
62
1
370
-1
100
AcDbLine
10
180.03
20
-21.06956
11
180.03
21
-22.05
0
LINE
5
354
100
AcDbEntity
8
0
6
ByLayer
62
1
370
-1
100
AcDbLine
10
180.03
20
-22.05
11
179.2172
21
-22.05
0
LINE
5
355
100
AcDbEntity
8
0
6
ByLayer
62
1
370
-1
100
AcDbLine
10
179.2172
20
-22.05
11
179.2172
21
-25.55012
0
LINE
5
356
100
AcDbEntity
8
0
6
ByLayer
62
1
370
-1
100
AcDbLine
10
179.2172
20
-25.55012
11
180.03
21
-25.55012
0
LINE
5
357
100
AcDbEntity
8
0
6
ByLayer
62
1
370
-1
100
AcDbLine
10
180.03
20
-25.55012
11
180.03
21
-30.559
0
LINE
5
358
100
AcDbEntity
8
0
6
ByLayer
62
1
370
-1
100
AcDbLine
10
180.03
20
-30.559
11
179.2172
21
-30.559
0
LINE
5
359
100
AcDbEntity
8
0
6
ByLayer
62
1
370
-1
100
AcDbLine
10
179.2172
20
-30.559
11
179.2172
21
-34.05912
0
LINE
5
35A
100
AcDbEntity
8
0
6
ByLayer
62
1
370
-1
100
AcDbLine
10
179.2172
20
-34.05912
11
180.03
21
-34.05912
0
LINE
5
35B
100
AcDbEntity
8
0
6
ByLayer
62
1
370
-1
100
AcDbLine
10
180.03
20
-34.05912
11
180.03
21
-35.03956
0
LINE
5
35C
100
AcDbEntity
8
0
6
ByLayer
62
1
370
-1
100
AcDbLine
10
180.03
20
-35.03956
11
194
21
-35.03956
0
LINE
5
35D
100
AcDbEntity
8
0
6
ByLayer
62
1
370
-1
100
AcDbLine
10
194
20
-35.03956
11
194
21
-34.05912
0
LINE
5
35E
100
AcDbEntity
8
0
6
ByLayer
62
1
370
-1
100
AcDbLine
10
194
20
-34.05912
11
194.8128
21
-34.05912
0
LINE
5
35F
100
AcDbEntity
8
0
6
ByLayer
62
1
370
-1
100
AcDbLine
10
194.8128
20
-34.05912
11
194.8128
21
-30.559
0
LINE
5
360
100
AcDbEntity
8
0
6
ByLayer
62
1
370
-1
100
AcDbLine
10
194.8128
20
-30.559
11
194
21
-30.559
0
LINE
5
361
100
AcDbEntity
8
0
6
ByLayer
62
1
370
-1
100
AcDbLine
10
194
20
-30.559
11
194
21
-25.55012
0
LINE
5
362
100
AcDbEntity
8
0
6
ByLayer
62
1
370
-1
100
AcDbLine
10
194
20
-25.55012
11
194.8128
21
-25.55012
0
LINE
5
363
100
AcDbEntity
8
0
6
ByLayer
62
1
370
-1
100
AcDbLine
10
194.8128
20
-25.55012
11
194.8128
21
-22.05
0
LINE
5
364
100
AcDbEntity
8
0
6
ByLayer
62
1
370
-1
100
AcDbLine
10
194.8128
20
-22.05
11
194
21
-22.05
0
LINE
5
365
100
AcDbEntity
8
0
6
ByLayer
62
1
370
-1
100
AcDbLine
10
194
20
-22.05
11
194
21
-21.06956
0
LINE
5
366
100
AcDbEntity
8
0
6
ByLayer
62
1
370
-1
100
AcDbLine
10
194
20
-40.11956
11
180.03
21
-40.11956
0
LINE
5
367
100
AcDbEntity
8
0
6
ByLayer
62
1
370
-1
100
AcDbLine
10
180.03
20
-40.11956
11
180.03
21
-41.1
0
LINE
5
368
100
AcDbEntity
8
0
6
ByLayer
62
1
370
-1
100
AcDbLine
10
180.03
20
-41.1
11
179.2172
21
-41.1
0
LINE
5
369
100
AcDbEntity
8
0
6
ByLayer
62
1
370
-1
100
AcDbLine
10
179.2172
20
-41.1
11
179.2172
21
-44.60012
0
LINE
5
36A
100
AcDbEntity
8
0
6
ByLayer
62
1
370
-1
100
AcDbLine
10
179.2172
20
-44.60012
11
180.03
21
-44.60012
0
LINE
5
36B
100
AcDbEntity
8
0
6
ByLayer
62
1
370
-1
100
AcDbLine
10
180.03
20
-44.60012
11
180.03
21
-49.6089999997
0
LINE
5
36C
100
AcDbEntity
8
0
6
ByLayer
62
1
370
-1
100
AcDbLine
10
180.03
20
-49.6089999997
11
179.2172
21
-49.6089999997
0
LINE
5
36D
100
AcDbEntity
8
0
6
ByLayer
62
1
370
-1
100
AcDbLine
10
179.2172
20
-49.6089999997
11
179.2172
21
-53.1091199997
0
LINE
5
36E
100
AcDbEntity
8
0
6
ByLayer
62
1
370
-1
100
AcDbLine
10
179.2172
20
-53.1091199997
11
180.03
21
-53.1091199997
0
LINE
5
36F
100
AcDbEntity
8
0
6
ByLayer
62
1
370
-1
100
AcDbLine
10
180.03
20
-53.1091199997
11
180.03
21
-54.0895599997
0
LINE
5
370
100
AcDbEntity
8
0
6
ByLayer
62
1
370
-1
100
AcDbLine
10
180.03
20
-54.0895599997
11
194
21
-54.0895599997
0
LINE
5
371
100
AcDbEntity
8
0
6
ByLayer
62
1
370
-1
100
AcDbLine
10
194
20
-54.0895599997
11
194
21
-53.1091199997
0
LINE
5
372
100
AcDbEntity
8
0
6
ByLayer
62
1
370
-1
100
AcDbLine
10
194
20
-53.1091199997
11
194.8128
21
-53.1091199997
0
LINE
5
373
100
AcDbEntity
8
0
6
ByLayer
62
1
370
-1
100
AcDbLine
10
194.8128
20
-53.1091199997
11
194.8128
21
-49.6089999997
0
LINE
5
374
100
AcDbEntity
8
0
6
ByLayer
62
1
370
-1
100
AcDbLine
10
194.8128
20
-49.6089999997
11
194
21
-49.6089999997
0
LINE
5
375
100
AcDbEntity
8
0
6
ByLayer
62
1
370
-1
100
AcDbLine
10
194
20
-49.6089999997
11
194
21
-44.60012
0
LINE
5
376
100
AcDbEntity
8
0
6
ByLayer
62
1
370
-1
100
AcDbLine
10
194
20
-44.60012
11
194.8128
21
-44.60012
0
LINE
5
377
100
AcDbEntity
8
0
6
ByLayer
62
1
370
-1
100
AcDbLine
10
194.8128
20
-44.60012
11
194.8128
21
-41.1
0
LINE
5
378
100
AcDbEntity
8
0
6
ByLayer
62
1
370
-1
100
AcDbLine
10
194.8128
20
-41.1
11
194
21
-41.1
0
LINE
5
379
100
AcDbEntity
8
0
6
ByLayer
62
1
370
-1
100
AcDbLine
10
194
20
-41.1
11
194
21
-40.11956
0
LINE
5
37A
100
AcDbEntity
8
0
6
ByLayer
62
1
370
-1
100
AcDbLine
10
194
20
-59.1695599997
11
180.03
21
-59.1695599997
0
LINE
5
37B
100
AcDbEntity
8
0
6
ByLayer
62
1
370
-1
100
AcDbLine
10
180.03
20
-59.1695599997
11
180.03
21
-60.1499999997
0
LINE
5
37C
100
AcDbEntity
8
0
6
ByLayer
62
1
370
-1
100
AcDbLine
10
180.03
20
-60.1499999997
11
179.2172
21
-60.1499999997
0
LINE
5
37D
100
AcDbEntity
8
0
6
ByLayer
62
1
370
-1
100
AcDbLine
10
179.2172
20
-60.1499999997
11
179.2172
21
-63.6501199997
0
LINE
5
37E
100
AcDbEntity
8
0
6
ByLayer
62
1
370
-1
100
AcDbLine
10
179.2172
20
-63.6501199997
11
180.03
21
-63.6501199997
0
LINE
5
37F
100
AcDbEntity
8
0
6
ByLayer
62
1
370
-1
100
AcDbLine
10
180.03
20
-63.6501199997
11
180.03
21
-68.6589999997
0
LINE
5
380
100
AcDbEntity
8
0
6
ByLayer
62
1
370
-1
100
AcDbLine
10
180.03
20
-68.6589999997
11
179.2172
21
-68.6589999997
0
LINE
5
381
100
AcDbEntity
8
0
6
ByLayer
62
1
370
-1
100
AcDbLine
10
179.2172
20
-68.6589999997
11
179.2172
21
-72.1591199997
0
LINE
5
382
100
AcDbEntity
8
0
6
ByLayer
62
1
370
-1
100
AcDbLine
10
179.2172
20
-72.1591199997
11
180.03
21
-72.1591199997
0
LINE
5
383
100
AcDbEntity
8
0
6
ByLayer
62
1
370
-1
100
AcDbLine
10
180.03
20
-72.1591199997
11
180.03
21
-73.1395599997
0
LINE
5
384
100
AcDbEntity
8
0
6
ByLayer
62
1
370
-1
100
AcDbLine
10
180.03
20
-73.1395599997
11
194
21
-73.1395599997
0
LINE
5
385
100
AcDbEntity
8
0
6
ByLayer
62
1
370
-1
100
AcDbLine
10
194
20
-73.1395599997
11
194
21
-72.1591199997
0
LINE
5
386
100
AcDbEntity
8
0
6
ByLayer
62
1
370
-1
100
AcDbLine
10
194
20
-72.1591199997
11
194.8128
21
-72.1591199997
0
LINE
5
387
100
AcDbEntity
8
0
6
ByLayer
62
1
370
-1
100
AcDbLine
10
194.8128
20
-72.1591199997
11
194.8128
21
-68.6589999997
0
LINE
5
388
100
AcDbEntity
8
0
6
ByLayer
62
1
370
-1
100
AcDbLine
10
194.8128
20
-68.6589999997
11
194
21
-68.6589999997
0
LINE
5
389
100
AcDbEntity
8
0
6
ByLayer
62
1
370
-1
100
AcDbLine
10
194
20
-68.6589999997
11
194
21
-63.6501199997
0
LINE
5
38A
100
AcDbEntity
8
0
6
ByLayer
62
1
370
-1
100
AcDbLine
10
194
20
-63.6501199997
11
194.8128
21
-63.6501199997
0
LINE
5
38B
100
AcDbEntity
8
0
6
ByLayer
62
1
370
-1
100
AcDbLine
10
194.8128
20
-63.6501199997
11
194.8128
21
-60.1499999997
0
LINE
5
38C
100
AcDbEntity
8
0
6
ByLayer
62
1
370
-1
100
AcDbLine
10
194.8128
20
-60.1499999997
11
194
21
-60.1499999997
0
LINE
5
38D
100
AcDbEntity
8
0
6
ByLayer
62
1
370
-1
100
AcDbLine
10
194
20
-60.1499999997
11
194
21
-59.1695599997
0
LINE
5
38E
100
AcDbEntity
8
0
6
ByLayer
62
1
370
-1
100
AcDbLine
10
133.35
20
-22.20456
11
147.32
21
-22.20456
0
LINE
5
38F
100
AcDbEntity
8
0
6
ByLayer
62
1
370
-1
100
AcDbLine
10
133.35
20
-18.95456
11
147.32
21
-18.95456
0
LINE
5
390
100
AcDbEntity
8
0
6
ByLayer
62
1
370
-1
100
AcDbLine
10
133.35
20
-18.95456
11
133.35
21
-22.20456
0
LINE
5
391
100
AcDbEntity
8
0
6
ByLayer
62
1
370
-1
100
AcDbLine
10
147.32
20
-22.20456
11
147.32
21
-18.95456
0
LINE
5
392
100
AcDbEntity
8
0
6
ByLayer
62
1
370
-1
100
AcDbLine
10
133.35
20
-46.20456
11
147.32
21
-46.20456
0
LINE
5
393
100
AcDbEntity
8
0
6
ByLayer
62
1
370
-1
100
AcDbLine
10
133.35
20
-42.95456
11
147.32
21
-42.95456
0
LINE
5
394
100
AcDbEntity
8
0
6
ByLayer
62
1
370
-1
100
AcDbLine
10
133.35
20
-42.95456
11
133.35
21
-46.20456
0
LINE
5
395
100
AcDbEntity
8
0
6
ByLayer
62
1
370
-1
100
AcDbLine
10
147.32
20
-46.20456
11
147.32
21
-42.95456
0
LINE
5
396
100
AcDbEntity
8
0
6
ByLayer
62
1
370
-1
100
AcDbLine
10
128.013132451
20
-82.6876138354
11
122.109155335
21
-95.3487336203
0
LINE
5
397
100
AcDbEntity
8
0
6
ByLayer
62
1
370
-1
100
AcDbLine
10
122.109155335
20
-95.3487336203
11
122.997735741
21
-95.7630854688
0
LINE
5
398
100
AcDbEntity
8
0
6
ByLayer
62
1
370
-1
100
AcDbLine
10
122.997735741
20
-95.7630854688
11
122.654231618
21
-96.4997324381
0
LINE
5
399
100
AcDbEntity
8
0
6
ByLayer
62
1
370
-1
100
AcDbLine
10
122.654231618
20
-96.4997324381
11
125.82641763
21
-97.9789470684
0
LINE
5
39A
100
AcDbEntity
8
0
6
ByLayer
62
1
370
-1
100
AcDbLine
10
125.82641763
20
-97.9789470684
11
126.169921753
21
-97.2423000991
0
LINE
5
39B
100
AcDbEntity
8
0
6
ByLayer
62
1
370
-1
100
AcDbLine
10
126.169921753
20
-97.2423000991
11
130.709508701
21
-99.359144258
0
LINE
5
39C
100
AcDbEntity
8
0
6
ByLayer
62
1
370
-1
100
AcDbLine
10
130.709508701
20
-99.359144258
11
130.366004578
21
-100.095791227
0
LINE
5
39D
100
AcDbEntity
8
0
6
ByLayer
62
1
370
-1
100
AcDbLine
10
130.366004578
20
-100.095791227
11
133.53819059
21
-101.575005858
0
LINE
5
39E
100
AcDbEntity
8
0
6
ByLayer
62
1
370
-1
100
AcDbLine
10
133.53819059
20
-101.575005858
11
133.881694713
21
-100.838358888
0
LINE
5
39F
100
AcDbEntity
8
0
6
ByLayer
62
1
370
-1
100
AcDbLine
10
133.881694713
20
-100.838358888
11
134.770275119
21
-101.252710737
0
LINE
5
3A0
100
AcDbEntity
8
0
6
ByLayer
62
1
370
-1
100
AcDbLine
10
134.770275119
20
-101.252710737
11
140.674252236
21
-88.5915909519
0
LINE
5
3A1
100
AcDbEntity
8
0
6
ByLayer
62
1
370
-1
100
AcDbLine
10
140.674252236
20
-88.5915909519
11
139.785671829
21
-88.1772391034
0
LINE
5
3A2
100
AcDbEntity
8
0
6
ByLayer
62
1
370
-1
100
AcDbLine
10
139.785671829
20
-88.1772391034
11
140.129175952
21
-87.4405921341
0
LINE
5
3A3
100
AcDbEntity
8
0
6
ByLayer
62
1
370
-1
100
AcDbLine
10
140.129175952
20
-87.4405921341
11
136.956989941
21
-85.9613775038
0
LINE
5
3A4
100
AcDbEntity
8
0
6
ByLayer
62
1
370
-1
100
AcDbLine
10
136.956989941
20
-85.9613775038
11
136.613485818
21
-86.6980244731
0
LINE
5
3A5
100
AcDbEntity
8
0
6
ByLayer
62
1
370
-1
100
AcDbLine
10
136.613485818
20
-86.6980244731
11
132.073898869
21
-84.5811803142
0
LINE
5
3A6
100
AcDbEntity
8
0
6
ByLayer
62
1
370
-1
100
AcDbLine
10
132.073898869
20
-84.5811803142
11
132.417402992
21
-83.8445333449
0
LINE
5
3A7
100
AcDbEntity
8
0
6
ByLayer
62
1
370
-1
100
AcDbLine
10
132.417402992
20
-83.8445333449
11
129.245216981
21
-82.3653187146
0
LINE
5
3A8
100
AcDbEntity
8
0
6
ByLayer
62
1
370
-1
100
AcDbLine
10
129.245216981
20
-82.3653187146
11
128.901712858
21
-83.1019656839
0
LINE
5
3A9
100
AcDbEntity
8
0
6
ByLayer
62
1
370
-1
100
AcDbLine
10
128.901712858
20
-83.1019656839
11
128.013132451
21
-82.6876138354
0
LINE
5
3AA
100
AcDbEntity
8
0
6
ByLayer
62
1
370
-1
100
AcDbLine
10
129.445808358
20
-79.6152304373
11
142.106928143
21
-85.5192075539
0
LINE
5
3AB
100
AcDbEntity
8
0
6
ByLayer
62
1
370
-1
100
AcDbLine
10
130.819317709
20
-76.6697301295
11
143.480437494
21
-82.573707246
0
LINE
5
3AC
100
AcDbEntity
8
0
6
ByLayer
62
1
370
-1
100
AcDbLine
10
130.819317709
20
-76.6697301295
11
129.445808358
21
-79.6152304373
0
LINE
5
3AD
100
AcDbEntity
8
0
6
ByLayer
62
1
370
-1
100
AcDbLine
10
142.106928143
20
-85.5192075539
11
143.480437494
21
-82.573707246
0
LINE
5
3AE
100
AcDbEntity
8
0
6
ByLayer
62
1
370
-1
100
AcDbLine
10
119.302970077
20
-101.366617326
11
131.964089861
21
-107.270594443
0
LINE
5
3AF
100
AcDbEntity
8
0
6
ByLayer
62
1
370
-1
100
AcDbLine
10
120.676479427
20
-98.4211170183
11
133.337599212
21
-104.325094135
0
LINE
5
3B0
100
AcDbEntity
8
0
6
ByLayer
62
1
370
-1
100
AcDbLine
10
120.676479427
20
-98.4211170183
11
119.302970077
21
-101.366617326
0
LINE
5
3B1
100
AcDbEntity
8
0
6
ByLayer
62
1
370
-1
100
AcDbLine
10
131.964089861
20
-107.270594443
11
133.337599212
21
-104.325094135
0
LINE
5
3B2
100
AcDbEntity
8
0
6
ByLayer
62
1
370
-1
100
AcDbLine
10
145.278295794
20
-90.7384917216
11
139.374318678
21
-103.399611506
0
LINE
5
3B3
100
AcDbEntity
8
0
6
ByLayer
62
1
370
-1
100
AcDbLine
10
139.374318678
20
-103.399611506
11
140.262899084
21
-103.813963355
0
LINE
5
3B4
100
AcDbEntity
8
0
6
ByLayer
62
1
370
-1
100
AcDbLine
10
140.262899084
20
-103.813963355
11
139.919394961
21
-104.550610324
0
LINE
5
3B5
100
AcDbEntity
8
0
6
ByLayer
62
1
370
-1
100
AcDbLine
10
139.919394961
20
-104.550610324
11
143.091580973
21
-106.029824955
0
LINE
5
3B6
100
AcDbEntity
8
0
6
ByLayer
62
1
370
-1
100
AcDbLine
10
143.091580973
20
-106.029824955
11
143.435085096
21
-105.293177985
0
LINE
5
3B7
100
AcDbEntity
8
0
6
ByLayer
62
1
370
-1
100
AcDbLine
10
143.435085096
20
-105.293177985
11
147.974672044
21
-107.410022144
0
LINE
5
3B8
100
AcDbEntity
8
0
6
ByLayer
62
1
370
-1
100
AcDbLine
10
147.974672044
20
-107.410022144
11
147.631167921
21
-108.146669113
0
LINE
5
3B9
100
AcDbEntity
8
0
6
ByLayer
62
1
370
-1
100
AcDbLine
10
147.631167921
20
-108.146669113
11
150.803353933
21
-109.625883744
0
LINE
5
3BA
100
AcDbEntity
8
0
6
ByLayer
62
1
370
-1
100
AcDbLine
10
150.803353933
20
-109.625883744
11
151.146858056
21
-108.889236774
0
LINE
5
3BB
100
AcDbEntity
8
0
6
ByLayer
62
1
370
-1
100
AcDbLine
10
151.146858056
20
-108.889236774
11
152.035438462
21
-109.303588623
0
LINE
5
3BC
100
AcDbEntity
8
0
6
ByLayer
62
1
370
-1
100
AcDbLine
10
152.035438462
20
-109.303588623
11
157.939415579
21
-96.6424688381
0
LINE
5
3BD
100
AcDbEntity
8
0
6
ByLayer
62
1
370
-1
100
AcDbLine
10
157.939415579
20
-96.6424688381
11
157.050835172
21
-96.2281169895
0
LINE
5
3BE
100
AcDbEntity
8
0
6
ByLayer
62
1
370
-1
100
AcDbLine
10
157.050835172
20
-96.2281169895
11
157.394339295
21
-95.4914700202
0
LINE
5
3BF
100
AcDbEntity
8
0
6
ByLayer
62
1
370
-1
100
AcDbLine
10
157.394339295
20
-95.4914700202
11
154.222153284
21
-94.0122553899
0
LINE
5
3C0
100
AcDbEntity
8
0
6
ByLayer
62
1
370
-1
100
AcDbLine
10
154.222153284
20
-94.0122553899
11
153.878649161
21
-94.7489023592
0
LINE
5
3C1
100
AcDbEntity
8
0
6
ByLayer
62
1
370
-1
100
AcDbLine
10
153.878649161
20
-94.7489023592
11
149.339062212
21
-92.6320582004
0
LINE
5
3C2
100
AcDbEntity
8
0
6
ByLayer
62
1
370
-1
100
AcDbLine
10
149.339062212
20
-92.6320582004
11
149.682566336
21
-91.8954112311
0
LINE
5
3C3
100
AcDbEntity
8
0
6
ByLayer
62
1
370
-1
100
AcDbLine
10
149.682566336
20
-91.8954112311
11
146.510380324
21
-90.4161966008
0
LINE
5
3C4
100
AcDbEntity
8
0
6
ByLayer
62
1
370
-1
100
AcDbLine
10
146.510380324
20
-90.4161966008
11
146.166876201
21
-91.1528435701
0
LINE
5
3C5
100
AcDbEntity
8
0
6
ByLayer
62
1
370
-1
100
AcDbLine
10
146.166876201
20
-91.1528435701
11
145.278295794
21
-90.7384917216
0
LINE
5
3C6
100
AcDbEntity
8
0
6
ByLayer
62
1
370
-1
100
AcDbLine
10
146.710971701
20
-87.6661083235
11
159.372091486
21
-93.57008544
0
LINE
5
3C7
100
AcDbEntity
8
0
6
ByLayer
62
1
370
-1
100
AcDbLine
10
148.084481052
20
-84.7206080156
11
160.745600837
21
-90.6245851321
0
LINE
5
3C8
100
AcDbEntity
8
0
6
ByLayer
62
1
370
-1
100
AcDbLine
10
148.084481052
20
-84.7206080156
11
146.710971701
21
-87.6661083235
0
LINE
5
3C9
100
AcDbEntity
8
0
6
ByLayer
62
1
370
-1
100
AcDbLine
10
159.372091486
20
-93.57008544
11
160.745600837
21
-90.6245851321
0
LINE
5
3CA
100
AcDbEntity
8
0
6
ByLayer
62
1
370
-1
100
AcDbLine
10
136.56813342
20
-109.417495212
11
149.229253205
21
-115.321472329
0
LINE
5
3CB
100
AcDbEntity
8
0
6
ByLayer
62
1
370
-1
100
AcDbLine
10
137.94164277
20
-106.471994904
11
150.602762555
21
-112.375972021
0
LINE
5
3CC
100
AcDbEntity
8
0
6
ByLayer
62
1
370
-1
100
AcDbLine
10
137.94164277
20
-106.471994904
11
136.56813342
21
-109.417495212
0
LINE
5
3CD
100
AcDbEntity
8
0
6
ByLayer
62
1
370
-1
100
AcDbLine
10
149.229253205
20
-115.321472329
11
150.602762555
21
-112.375972021
0
LINE
5
3CE
100
AcDbEntity
8
0
6
ByLayer
62
1
370
-1
100
AcDbLine
10
162.543459137
20
-98.7893696077
11
156.639482021
21
-111.450489393
0
LINE
5
3CF
100
AcDbEntity
8
0
6
ByLayer
62
1
370
-1
100
AcDbLine
10
156.639482021
20
-111.450489393
11
157.528062427
21
-111.864841241
0
LINE
5
3D0
100
AcDbEntity
8
0
6
ByLayer
62
1
370
-1
100
AcDbLine
10
157.528062427
20
-111.864841241
11
157.184558304
21
-112.60148821
0
LINE
5
3D1
100
AcDbEntity
8
0
6
ByLayer
62
1
370
-1
100
AcDbLine
10
157.184558304
20
-112.60148821
11
160.356744316
21
-114.080702841
0
LINE
5
3D2
100
AcDbEntity
8
0
6
ByLayer
62
1
370
-1
100
AcDbLine
10
160.356744316
20
-114.080702841
11
160.700248439
21
-113.344055871
0
LINE
5
3D3
100
AcDbEntity
8
0
6
ByLayer
62
1
370
-1
100
AcDbLine
10
160.700248439
20
-113.344055871
11
165.239835387
21
-115.46090003
0
LINE
5
3D4
100
AcDbEntity
8
0
6
ByLayer
62
1
370
-1
100
AcDbLine
10
165.239835387
20
-115.46090003
11
164.896331264
21
-116.197547
0
LINE
5
3D5
100
AcDbEntity
8
0
6
ByLayer
62
1
370
-1
100
AcDbLine
10
164.896331264
20
-116.197547
11
168.068517276
21
-117.67676163
0
LINE
5
3D6
100
AcDbEntity
8
0
6
ByLayer
62
1
370
-1
100
AcDbLine
10
168.068517276
20
-117.67676163
11
168.412021399
21
-116.940114661
0
LINE
5
3D7
100
AcDbEntity
8
0
6
ByLayer
62
1
370
-1
100
AcDbLine
10
169.300601806
20
-117.354466509
11
175.204578922
21
-104.693346724
0
LINE
5
3D8
100
AcDbEntity
8
0
6
ByLayer
62
1
370
-1
100
AcDbLine
10
175.204578922
20
-104.693346724
11
174.315998515
21
-104.278994876
0
LINE
5
3D9
100
AcDbEntity
8
0
6
ByLayer
62
1
370
-1
100
AcDbLine
10
174.315998515
20
-104.278994876
11
174.659502638
21
-103.542347906
0
LINE
5
3DA
100
AcDbEntity
8
0
6
ByLayer
62
1
370
-1
100
AcDbLine
10
174.659502638
20
-103.542347906
11
171.487316627
21
-102.063133276
0
LINE
5
3DB
100
AcDbEntity
8
0
6
ByLayer
62
1
370
-1
100
AcDbLine
10
171.487316627
20
-102.063133276
11
171.143812504
21
-102.799780245
0
LINE
5
3DC
100
AcDbEntity
8
0
6
ByLayer
62
1
370
-1
100
AcDbLine
10
171.143812504
20
-102.799780245
11
166.604225555
21
-100.682936086
0
LINE
5
3DD
100
AcDbEntity
8
0
6
ByLayer
62
1
370
-1
100
AcDbLine
10
166.604225555
20
-100.682936086
11
166.947729679
21
-99.9462891172
0
LINE
5
3DE
100
AcDbEntity
8
0
6
ByLayer
62
1
370
-1
100
AcDbLine
10
166.947729679
20
-99.9462891172
11
163.775543667
21
-98.4670744869
0
LINE
5
3DF
100
AcDbEntity
8
0
6
ByLayer
62
1
370
-1
100
AcDbLine
10
163.775543667
20
-98.4670744869
11
163.432039544
21
-99.2037214563
0
LINE
5
3E0
100
AcDbEntity
8
0
6
ByLayer
62
1
370
-1
100
AcDbLine
10
163.432039544
20
-99.2037214563
11
162.543459137
21
-98.7893696077
0
LINE
5
3E1
100
AcDbEntity
8
0
6
ByLayer
62
1
370
-1
100
AcDbLine
10
163.976135044
20
-95.7169862097
11
176.637254829
21
-101.620963326
0
LINE
5
3E2
100
AcDbEntity
8
0
6
ByLayer
62
1
370
-1
100
AcDbLine
10
165.349644395
20
-92.7714859018
11
178.01076418
21
-98.6754630183
0
LINE
5
3E3
100
AcDbEntity
8
0
6
ByLayer
62
1
370
-1
100
AcDbLine
10
165.349644395
20
-92.7714859018
11
163.976135044
21
-95.7169862097
0
LINE
5
3E4
100
AcDbEntity
8
0
6
ByLayer
62
1
370
-1
100
AcDbLine
10
176.637254829
20
-101.620963326
11
178.01076418
21
-98.6754630183
0
LINE
5
3E5
100
AcDbEntity
8
0
6
ByLayer
62
1
370
-1
100
AcDbLine
10
153.833296763
20
-117.468373098
11
166.494416548
21
-123.372350215
0
LINE
5
3E6
100
AcDbEntity
8
0
6
ByLayer
62
1
370
-1
100
AcDbLine
10
155.206806113
20
-114.522872791
11
167.867925898
21
-120.426849907
0
LINE
5
3E7
100
AcDbEntity
8
0
6
ByLayer
62
1
370
-1
100
AcDbLine
10
155.206806113
20
-114.522872791
11
153.833296763
21
-117.468373098
0
LINE
5
3E8
100
AcDbEntity
8
0
6
ByLayer
62
1
370
-1
100
AcDbLine
10
166.494416548
20
-123.372350215
11
167.867925898
21
-120.426849907
0
LINE
5
3E9
100
AcDbEntity
8
0
6
ByLayer
62
1
370
-1
100
AcDbLine
10
168.412021399
20
-116.940114661
11
169.300601806
21
-117.354466509
0
LINE
5
3EA
100
AcDbEntity
8
0
6
ByLayer
62
1
370
-1
100
AcDbLine
10
-1.5253
20
-36.53956
11
11.4747
21
-36.53956
0
LINE
5
3EB
100
AcDbEntity
8
0
6
ByLayer
62
1
370
-1
100
AcDbLine
10
-1.5253
20
-88.5396
11
11.4747
21
-88.5396
0
LINE
5
3EC
100
AcDbEntity
8
0
6
ByLayer
62
1
370
-1
100
AcDbLine
10
-1.5253
20
-36.53956
11
-1.5253
21
-88.5396
0
LINE
5
3ED
100
AcDbEntity
8
0
6
ByLayer
62
1
370
-1
100
AcDbLine
10
11.4747
20
-36.53956
11
11.4747
21
-88.5396
0
CIRCLE
5
3EE
100
AcDbEntity
8
0
6
ByLayer
62
1
370
-1
100
AcDbCircle
10
160.1672
20
18.31044
40
2
0
CIRCLE
5
3EF
100
AcDbEntity
8
0
6
ByLayer
62
1
370
-1
100
AcDbCircle
10
207.5
20
18.31044
40
2
0
LINE
5
3F0
100
AcDbEntity
8
0
6
ByLayer
62
1
370
-1
100
AcDbLine
10
157.391561036
20
-143.372350215
11
184.391600517
21
-143.372350215
0
LINE
5
3F1
100
AcDbEntity
8
0
6
ByLayer
62
1
370
-1
100
AcDbLine
10
96.9996605187
20
-115.189463307
11
157.391561036
21
-143.372350215
0
LINE
5
3F2
100
AcDbEntity
8
0
6
ByLayer
62
1
370
-1
100
AcDbLine
10
215
20
-77.732290977
11
215
21
25.81044
0
LINE
5
3F3
100
AcDbEntity
8
0
6
ByLayer
62
1
370
-1
100
AcDbLine
10
215
20
-77.732290977
11
184.391600517
21
-143.372350215
0
LINE
5
3F4
100
AcDbEntity
8
0
6
ByLayer
62
1
370
-1
100
AcDbLine
10
-25
20
-115.18956
11
-25
21
25.81044
0
CIRCLE
5
3F5
100
AcDbEntity
8
0
6
ByLayer
62
1
370
-1
100
AcDbCircle
10
-17.5
20
18.31044
40
2
0
CIRCLE
5
3F6
100
AcDbEntity
8
0
6
ByLayer
62
1
370
-1
100
AcDbCircle
10
-17.5
20
-107.689553792
40
2
0
LINE
5
3F7
100
AcDbEntity
8
0
6
ByLayer
62
1
370
-1
100
AcDbLine
10
-25
20
25.81044
11
215
21
25.81044
0
CIRCLE
5
3F8
100
AcDbEntity
8
0
6
ByLayer
62
1
370
-1
100
AcDbCircle
10
207.5
20
-44.68956
40
2
0
CIRCLE
5
3F9
100
AcDbEntity
8
0
6
ByLayer
62
1
370
-1
100
AcDbCircle
10
-17.5
20
-44.68956
40
2
0
LINE
5
3FA
100
AcDbEntity
8
0
6
ByLayer
62
1
370
-1
100
AcDbLine
10
96.999660519
20
-115.189463307
11
-25
21
-115.189559214
0
CIRCLE
5
3FB
100
AcDbEntity
8
0
6
ByLayer
62
1
370
-1
100
AcDbCircle
10
207.5
20
-77.732290977
40
2
0
CIRCLE
5
3FC
100
AcDbEntity
8
0
6
ByLayer
62
1
370
-1
100
AcDbCircle
10
180.388900517
20
-135.872350215
40
2
0
ENDSEC
0
SECTION
2
OBJECTS
0
DICTIONARY
5
C
330
0
100
AcDbDictionary
281
1
3
ACAD_GROUP
350
D
0
DICTIONARY
5
D
330
C
100
AcDbDictionary
281
1
0
ENDSEC
0
EOF
